<?xml version="1.0" encoding="utf-8" standalone="no"?>
<!DOCTYPE svg PUBLIC "-//W3C//DTD SVG 1.1//EN"
  "http://www.w3.org/Graphics/SVG/1.1/DTD/svg11.dtd">
<!-- Created with matplotlib (https://matplotlib.org/) -->
<svg height="302.878125pt" version="1.1" viewBox="0 0 705.742187 302.878125" width="705.742187pt" xmlns="http://www.w3.org/2000/svg" xmlns:xlink="http://www.w3.org/1999/xlink">
 <defs>
  <style type="text/css">
*{stroke-linecap:butt;stroke-linejoin:round;}
  </style>
 </defs>
 <g id="figure_1">
  <g id="patch_1">
   <path d="M 0 302.878125 
L 705.742187 302.878125 
L 705.742187 0 
L 0 0 
z
" style="fill:#ffffff;"/>
  </g>
  <g id="axes_1">
   <g id="line2d_1">
    <path clip-path="url(#p41ebdd1012)" d="M 48.150813 98.920162 
L 54.52951 106.642249 
L 60.831356 113.924618 
L 67.05635 120.779878 
L 73.204492 127.22048 
L 79.237356 133.221513 
L 85.193369 138.836317 
L 91.07253 144.076807 
L 96.874839 148.954745 
L 102.638722 153.511158 
L 108.325754 157.7243 
L 113.935934 161.605547 
L 119.469262 165.166121 
L 124.964164 168.439071 
L 130.382214 171.409734 
L 135.761838 174.107325 
L 141.103037 176.537227 
L 146.367383 178.689951 
L 151.593304 180.589129 
L 156.780799 182.239988 
L 161.929868 183.647717 
L 167.078937 184.825402 
L 172.189581 185.766824 
L 177.300224 186.481623 
L 182.372441 186.966974 
L 187.444658 187.229098 
L 192.516876 187.267993 
L 197.589093 187.083661 
L 202.66131 186.676102 
L 207.733527 186.045314 
L 212.805745 185.191299 
L 217.916388 184.105043 
L 223.027031 182.792164 
L 228.1761 181.240229 
L 233.363595 179.444088 
L 238.589516 177.398551 
L 243.853863 175.098392 
L 249.156635 172.538344 
L 254.497834 169.713106 
L 259.915884 166.594316 
L 265.37236 163.195987 
L 270.905688 159.485978 
L 276.477442 155.481773 
L 282.126047 151.147377 
L 287.851505 146.47149 
L 293.653814 141.442658 
L 299.494549 136.0855 
L 305.412136 130.355988 
L 311.406574 124.242284 
L 317.477865 117.732397 
L 323.664433 110.769912 
L 329.927853 103.382635 
L 333.578312 98.920162 
L 333.578312 98.920162 
" style="fill:none;stroke:#00dd00;stroke-linecap:square;stroke-width:3;"/>
   </g>
   <g id="line2d_2">
    <path clip-path="url(#p41ebdd1012)" d="M 75.612812 129.653962 
L 81.645326 135.528599 
L 87.600992 141.018653 
L 93.479811 146.136038 
L 99.281783 150.892514 
L 105.006908 155.299686 
L 110.655185 159.369006 
L 116.226614 163.111774 
L 121.759621 166.562178 
L 127.21578 169.70454 
L 132.633515 172.569194 
L 137.974403 175.143931 
L 143.276867 177.455307 
L 148.540907 179.508625 
L 153.766524 181.30915 
L 158.953718 182.862109 
L 164.102487 184.172689 
L 169.212833 185.24604 
L 174.323179 186.092795 
L 179.395102 186.709137 
L 184.467024 187.102276 
L 189.538946 187.272214 
L 194.610869 187.21895 
L 199.682791 186.942484 
L 204.754713 186.442816 
L 209.826636 185.719947 
L 214.936982 184.765857 
L 220.047328 183.58517 
L 225.196097 182.166448 
L 230.38329 180.50454 
L 235.570484 178.609169 
L 240.796101 176.463696 
L 246.098565 174.044485 
L 251.439453 171.361132 
L 256.818764 168.408294 
L 262.2365 165.180592 
L 267.731082 161.646987 
L 273.264088 157.823964 
L 278.873942 153.676656 
L 284.560643 149.193841 
L 290.324191 144.364144 
L 296.126162 139.211134 
L 302.004981 133.691963 
L 306.116312 129.653962 
L 306.116312 129.653962 
" style="fill:none;stroke:#666666;stroke-linecap:square;stroke-width:3;"/>
   </g>
   <g id="line2d_3">
    <path clip-path="url(#p41ebdd1012)" d="M 410.412812 112.273327 
L 416.099513 119.492593 
L 421.709366 126.256451 
L 427.203949 132.53679 
L 432.621684 138.395451 
L 437.962572 143.84654 
L 443.226613 148.903965 
L 448.413806 153.58143 
L 453.524152 157.892441 
L 458.557651 161.850303 
L 463.514302 165.468123 
L 468.43253 168.783649 
L 473.27391 171.780558 
L 478.038443 174.471455 
L 482.764553 176.88737 
L 487.452238 179.034455 
L 492.063077 180.904241 
L 496.635492 182.521337 
L 501.169483 183.891696 
L 505.703474 185.02989 
L 510.199042 185.929218 
L 514.656185 186.595531 
L 519.113329 187.037484 
L 523.570473 187.255075 
L 527.989193 187.249323 
L 532.407914 187.023061 
L 536.865057 186.571438 
L 541.322201 185.895454 
L 545.779345 184.995109 
L 550.274913 183.859732 
L 554.808904 182.483471 
L 559.342895 180.875045 
L 563.91531 179.017865 
L 568.526148 176.905978 
L 573.213834 174.512756 
L 577.939944 171.848687 
L 582.704477 168.907618 
L 587.545857 165.656502 
L 592.464085 162.082734 
L 597.420736 158.204655 
L 602.454235 153.982498 
L 607.564581 149.403158 
L 612.751774 144.453329 
L 618.015815 139.119505 
L 623.356703 133.38798 
L 628.774438 127.24485 
L 634.26902 120.676007 
L 639.84045 113.667146 
L 640.916312 112.273327 
L 640.916312 112.273327 
" style="fill:none;stroke:#6666ff;stroke-linecap:square;stroke-width:3;"/>
   </g>
   <g id="line2d_4">
    <path clip-path="url(#p41ebdd1012)" d="M 410.412812 129.653962 
L 416.445326 135.528599 
L 422.400992 141.018653 
L 428.279811 146.136038 
L 434.081783 150.892514 
L 439.806908 155.299686 
L 445.455185 159.369006 
L 451.026614 163.111774 
L 456.559621 166.562178 
L 462.01578 169.70454 
L 467.433515 172.569194 
L 472.774403 175.143931 
L 478.076867 177.455307 
L 483.340907 179.508625 
L 488.566524 181.30915 
L 493.753718 182.862109 
L 498.902487 184.172689 
L 504.012833 185.24604 
L 509.123179 186.092795 
L 514.195102 186.709137 
L 519.267024 187.102276 
L 524.338946 187.272214 
L 529.410869 187.21895 
L 534.482791 186.942484 
L 539.554713 186.442816 
L 544.626636 185.719947 
L 549.736982 184.765857 
L 554.847328 183.58517 
L 559.996097 182.166448 
L 565.18329 180.50454 
L 570.370484 178.609169 
L 575.596101 176.463696 
L 580.898565 174.044485 
L 586.239453 171.361132 
L 591.618764 168.408294 
L 597.0365 165.180592 
L 602.531082 161.646987 
L 608.064088 157.823964 
L 613.673942 153.676656 
L 619.360643 149.193841 
L 625.124191 144.364144 
L 630.926162 139.211134 
L 636.804981 133.691963 
L 640.916312 129.653962 
L 640.916312 129.653962 
" style="fill:none;stroke:#666666;stroke-linecap:square;stroke-width:3;"/>
   </g>
   <g id="line2d_5">
    <defs>
     <path d="M -2.5 5 
L 0 2.5 
L 2.5 5 
L 5 2.5 
L 2.5 0 
L 5 -2.5 
L 2.5 -5 
L 0 -2.5 
L -2.5 -5 
L -5 -2.5 
L -2.5 0 
L -5 2.5 
z
" id="m097bb00dd4" style="stroke:#00dd00;stroke-linejoin:miter;"/>
    </defs>
    <g clip-path="url(#p41ebdd1012)">
     <use style="fill:#00dd00;stroke:#00dd00;stroke-linejoin:miter;" x="190.864562" xlink:href="#m097bb00dd4" y="129.653962"/>
    </g>
   </g>
   <g id="line2d_6">
    <defs>
     <path d="M -4 4 
L 4 -4 
M -4 -4 
L 4 4 
" id="m165e671ea9" style="stroke:#666666;"/>
    </defs>
    <g clip-path="url(#p41ebdd1012)">
     <use style="fill:#666666;stroke:#666666;" x="190.864562" xlink:href="#m165e671ea9" y="129.653962"/>
    </g>
   </g>
   <g id="line2d_7">
    <defs>
     <path d="M -2.5 5 
L 0 2.5 
L 2.5 5 
L 5 2.5 
L 2.5 0 
L 5 -2.5 
L 2.5 -5 
L 0 -2.5 
L -2.5 -5 
L -5 -2.5 
L -2.5 0 
L -5 2.5 
z
" id="mcb1cfdfc8d" style="stroke:#6666ff;stroke-linejoin:miter;"/>
    </defs>
    <g clip-path="url(#p41ebdd1012)">
     <use style="fill:#6666ff;stroke:#6666ff;stroke-linejoin:miter;" x="525.664562" xlink:href="#mcb1cfdfc8d" y="143.007127"/>
    </g>
   </g>
   <g id="line2d_8">
    <g clip-path="url(#p41ebdd1012)">
     <use style="fill:#666666;stroke:#666666;" x="525.664562" xlink:href="#m165e671ea9" y="129.653962"/>
    </g>
   </g>
   <g id="text_1">
    <!-- Focus (same for both) -->
    <defs>
     <path d="M 9.8125 72.90625 
L 51.703125 72.90625 
L 51.703125 64.59375 
L 19.671875 64.59375 
L 19.671875 43.109375 
L 48.578125 43.109375 
L 48.578125 34.8125 
L 19.671875 34.8125 
L 19.671875 0 
L 9.8125 0 
z
" id="DejaVuSans-70"/>
     <path d="M 30.609375 48.390625 
Q 23.390625 48.390625 19.1875 42.75 
Q 14.984375 37.109375 14.984375 27.296875 
Q 14.984375 17.484375 19.15625 11.84375 
Q 23.34375 6.203125 30.609375 6.203125 
Q 37.796875 6.203125 41.984375 11.859375 
Q 46.1875 17.53125 46.1875 27.296875 
Q 46.1875 37.015625 41.984375 42.703125 
Q 37.796875 48.390625 30.609375 48.390625 
z
M 30.609375 56 
Q 42.328125 56 49.015625 48.375 
Q 55.71875 40.765625 55.71875 27.296875 
Q 55.71875 13.875 49.015625 6.21875 
Q 42.328125 -1.421875 30.609375 -1.421875 
Q 18.84375 -1.421875 12.171875 6.21875 
Q 5.515625 13.875 5.515625 27.296875 
Q 5.515625 40.765625 12.171875 48.375 
Q 18.84375 56 30.609375 56 
z
" id="DejaVuSans-111"/>
     <path d="M 48.78125 52.59375 
L 48.78125 44.1875 
Q 44.96875 46.296875 41.140625 47.34375 
Q 37.3125 48.390625 33.40625 48.390625 
Q 24.65625 48.390625 19.8125 42.84375 
Q 14.984375 37.3125 14.984375 27.296875 
Q 14.984375 17.28125 19.8125 11.734375 
Q 24.65625 6.203125 33.40625 6.203125 
Q 37.3125 6.203125 41.140625 7.25 
Q 44.96875 8.296875 48.78125 10.40625 
L 48.78125 2.09375 
Q 45.015625 0.34375 40.984375 -0.53125 
Q 36.96875 -1.421875 32.421875 -1.421875 
Q 20.0625 -1.421875 12.78125 6.34375 
Q 5.515625 14.109375 5.515625 27.296875 
Q 5.515625 40.671875 12.859375 48.328125 
Q 20.21875 56 33.015625 56 
Q 37.15625 56 41.109375 55.140625 
Q 45.0625 54.296875 48.78125 52.59375 
z
" id="DejaVuSans-99"/>
     <path d="M 8.5 21.578125 
L 8.5 54.6875 
L 17.484375 54.6875 
L 17.484375 21.921875 
Q 17.484375 14.15625 20.5 10.265625 
Q 23.53125 6.390625 29.59375 6.390625 
Q 36.859375 6.390625 41.078125 11.03125 
Q 45.3125 15.671875 45.3125 23.6875 
L 45.3125 54.6875 
L 54.296875 54.6875 
L 54.296875 0 
L 45.3125 0 
L 45.3125 8.40625 
Q 42.046875 3.421875 37.71875 1 
Q 33.40625 -1.421875 27.6875 -1.421875 
Q 18.265625 -1.421875 13.375 4.4375 
Q 8.5 10.296875 8.5 21.578125 
z
M 31.109375 56 
z
" id="DejaVuSans-117"/>
     <path d="M 44.28125 53.078125 
L 44.28125 44.578125 
Q 40.484375 46.53125 36.375 47.5 
Q 32.28125 48.484375 27.875 48.484375 
Q 21.1875 48.484375 17.84375 46.4375 
Q 14.5 44.390625 14.5 40.28125 
Q 14.5 37.15625 16.890625 35.375 
Q 19.28125 33.59375 26.515625 31.984375 
L 29.59375 31.296875 
Q 39.15625 29.25 43.1875 25.515625 
Q 47.21875 21.78125 47.21875 15.09375 
Q 47.21875 7.46875 41.1875 3.015625 
Q 35.15625 -1.421875 24.609375 -1.421875 
Q 20.21875 -1.421875 15.453125 -0.5625 
Q 10.6875 0.296875 5.421875 2 
L 5.421875 11.28125 
Q 10.40625 8.6875 15.234375 7.390625 
Q 20.0625 6.109375 24.8125 6.109375 
Q 31.15625 6.109375 34.5625 8.28125 
Q 37.984375 10.453125 37.984375 14.40625 
Q 37.984375 18.0625 35.515625 20.015625 
Q 33.0625 21.96875 24.703125 23.78125 
L 21.578125 24.515625 
Q 13.234375 26.265625 9.515625 29.90625 
Q 5.8125 33.546875 5.8125 39.890625 
Q 5.8125 47.609375 11.28125 51.796875 
Q 16.75 56 26.8125 56 
Q 31.78125 56 36.171875 55.265625 
Q 40.578125 54.546875 44.28125 53.078125 
z
" id="DejaVuSans-115"/>
     <path id="DejaVuSans-32"/>
     <path d="M 31 75.875 
Q 24.46875 64.65625 21.28125 53.65625 
Q 18.109375 42.671875 18.109375 31.390625 
Q 18.109375 20.125 21.3125 9.0625 
Q 24.515625 -2 31 -13.1875 
L 23.1875 -13.1875 
Q 15.875 -1.703125 12.234375 9.375 
Q 8.59375 20.453125 8.59375 31.390625 
Q 8.59375 42.28125 12.203125 53.3125 
Q 15.828125 64.359375 23.1875 75.875 
z
" id="DejaVuSans-40"/>
     <path d="M 34.28125 27.484375 
Q 23.390625 27.484375 19.1875 25 
Q 14.984375 22.515625 14.984375 16.5 
Q 14.984375 11.71875 18.140625 8.90625 
Q 21.296875 6.109375 26.703125 6.109375 
Q 34.1875 6.109375 38.703125 11.40625 
Q 43.21875 16.703125 43.21875 25.484375 
L 43.21875 27.484375 
z
M 52.203125 31.203125 
L 52.203125 0 
L 43.21875 0 
L 43.21875 8.296875 
Q 40.140625 3.328125 35.546875 0.953125 
Q 30.953125 -1.421875 24.3125 -1.421875 
Q 15.921875 -1.421875 10.953125 3.296875 
Q 6 8.015625 6 15.921875 
Q 6 25.140625 12.171875 29.828125 
Q 18.359375 34.515625 30.609375 34.515625 
L 43.21875 34.515625 
L 43.21875 35.40625 
Q 43.21875 41.609375 39.140625 45 
Q 35.0625 48.390625 27.6875 48.390625 
Q 23 48.390625 18.546875 47.265625 
Q 14.109375 46.140625 10.015625 43.890625 
L 10.015625 52.203125 
Q 14.9375 54.109375 19.578125 55.046875 
Q 24.21875 56 28.609375 56 
Q 40.484375 56 46.34375 49.84375 
Q 52.203125 43.703125 52.203125 31.203125 
z
" id="DejaVuSans-97"/>
     <path d="M 52 44.1875 
Q 55.375 50.25 60.0625 53.125 
Q 64.75 56 71.09375 56 
Q 79.640625 56 84.28125 50.015625 
Q 88.921875 44.046875 88.921875 33.015625 
L 88.921875 0 
L 79.890625 0 
L 79.890625 32.71875 
Q 79.890625 40.578125 77.09375 44.375 
Q 74.3125 48.1875 68.609375 48.1875 
Q 61.625 48.1875 57.5625 43.546875 
Q 53.515625 38.921875 53.515625 30.90625 
L 53.515625 0 
L 44.484375 0 
L 44.484375 32.71875 
Q 44.484375 40.625 41.703125 44.40625 
Q 38.921875 48.1875 33.109375 48.1875 
Q 26.21875 48.1875 22.15625 43.53125 
Q 18.109375 38.875 18.109375 30.90625 
L 18.109375 0 
L 9.078125 0 
L 9.078125 54.6875 
L 18.109375 54.6875 
L 18.109375 46.1875 
Q 21.1875 51.21875 25.484375 53.609375 
Q 29.78125 56 35.6875 56 
Q 41.65625 56 45.828125 52.96875 
Q 50 49.953125 52 44.1875 
z
" id="DejaVuSans-109"/>
     <path d="M 56.203125 29.59375 
L 56.203125 25.203125 
L 14.890625 25.203125 
Q 15.484375 15.921875 20.484375 11.0625 
Q 25.484375 6.203125 34.421875 6.203125 
Q 39.59375 6.203125 44.453125 7.46875 
Q 49.3125 8.734375 54.109375 11.28125 
L 54.109375 2.78125 
Q 49.265625 0.734375 44.1875 -0.34375 
Q 39.109375 -1.421875 33.890625 -1.421875 
Q 20.796875 -1.421875 13.15625 6.1875 
Q 5.515625 13.8125 5.515625 26.8125 
Q 5.515625 40.234375 12.765625 48.109375 
Q 20.015625 56 32.328125 56 
Q 43.359375 56 49.78125 48.890625 
Q 56.203125 41.796875 56.203125 29.59375 
z
M 47.21875 32.234375 
Q 47.125 39.59375 43.09375 43.984375 
Q 39.0625 48.390625 32.421875 48.390625 
Q 24.90625 48.390625 20.390625 44.140625 
Q 15.875 39.890625 15.1875 32.171875 
z
" id="DejaVuSans-101"/>
     <path d="M 37.109375 75.984375 
L 37.109375 68.5 
L 28.515625 68.5 
Q 23.6875 68.5 21.796875 66.546875 
Q 19.921875 64.59375 19.921875 59.515625 
L 19.921875 54.6875 
L 34.71875 54.6875 
L 34.71875 47.703125 
L 19.921875 47.703125 
L 19.921875 0 
L 10.890625 0 
L 10.890625 47.703125 
L 2.296875 47.703125 
L 2.296875 54.6875 
L 10.890625 54.6875 
L 10.890625 58.5 
Q 10.890625 67.625 15.140625 71.796875 
Q 19.390625 75.984375 28.609375 75.984375 
z
" id="DejaVuSans-102"/>
     <path d="M 41.109375 46.296875 
Q 39.59375 47.171875 37.8125 47.578125 
Q 36.03125 48 33.890625 48 
Q 26.265625 48 22.1875 43.046875 
Q 18.109375 38.09375 18.109375 28.8125 
L 18.109375 0 
L 9.078125 0 
L 9.078125 54.6875 
L 18.109375 54.6875 
L 18.109375 46.1875 
Q 20.953125 51.171875 25.484375 53.578125 
Q 30.03125 56 36.53125 56 
Q 37.453125 56 38.578125 55.875 
Q 39.703125 55.765625 41.0625 55.515625 
z
" id="DejaVuSans-114"/>
     <path d="M 48.6875 27.296875 
Q 48.6875 37.203125 44.609375 42.84375 
Q 40.53125 48.484375 33.40625 48.484375 
Q 26.265625 48.484375 22.1875 42.84375 
Q 18.109375 37.203125 18.109375 27.296875 
Q 18.109375 17.390625 22.1875 11.75 
Q 26.265625 6.109375 33.40625 6.109375 
Q 40.53125 6.109375 44.609375 11.75 
Q 48.6875 17.390625 48.6875 27.296875 
z
M 18.109375 46.390625 
Q 20.953125 51.265625 25.265625 53.625 
Q 29.59375 56 35.59375 56 
Q 45.5625 56 51.78125 48.09375 
Q 58.015625 40.1875 58.015625 27.296875 
Q 58.015625 14.40625 51.78125 6.484375 
Q 45.5625 -1.421875 35.59375 -1.421875 
Q 29.59375 -1.421875 25.265625 0.953125 
Q 20.953125 3.328125 18.109375 8.203125 
L 18.109375 0 
L 9.078125 0 
L 9.078125 75.984375 
L 18.109375 75.984375 
z
" id="DejaVuSans-98"/>
     <path d="M 18.3125 70.21875 
L 18.3125 54.6875 
L 36.8125 54.6875 
L 36.8125 47.703125 
L 18.3125 47.703125 
L 18.3125 18.015625 
Q 18.3125 11.328125 20.140625 9.421875 
Q 21.96875 7.515625 27.59375 7.515625 
L 36.8125 7.515625 
L 36.8125 0 
L 27.59375 0 
Q 17.1875 0 13.234375 3.875 
Q 9.28125 7.765625 9.28125 18.015625 
L 9.28125 47.703125 
L 2.6875 47.703125 
L 2.6875 54.6875 
L 9.28125 54.6875 
L 9.28125 70.21875 
z
" id="DejaVuSans-116"/>
     <path d="M 54.890625 33.015625 
L 54.890625 0 
L 45.90625 0 
L 45.90625 32.71875 
Q 45.90625 40.484375 42.875 44.328125 
Q 39.84375 48.1875 33.796875 48.1875 
Q 26.515625 48.1875 22.3125 43.546875 
Q 18.109375 38.921875 18.109375 30.90625 
L 18.109375 0 
L 9.078125 0 
L 9.078125 75.984375 
L 18.109375 75.984375 
L 18.109375 46.1875 
Q 21.34375 51.125 25.703125 53.5625 
Q 30.078125 56 35.796875 56 
Q 45.21875 56 50.046875 50.171875 
Q 54.890625 44.34375 54.890625 33.015625 
z
" id="DejaVuSans-104"/>
     <path d="M 8.015625 75.875 
L 15.828125 75.875 
Q 23.140625 64.359375 26.78125 53.3125 
Q 30.421875 42.28125 30.421875 31.390625 
Q 30.421875 20.453125 26.78125 9.375 
Q 23.140625 -1.703125 15.828125 -13.1875 
L 8.015625 -13.1875 
Q 14.5 -2 17.703125 9.0625 
Q 20.90625 20.125 20.90625 31.390625 
Q 20.90625 42.671875 17.703125 53.65625 
Q 14.5 64.65625 8.015625 75.875 
z
" id="DejaVuSans-41"/>
    </defs>
    <g transform="translate(196.62715 132.413337)scale(0.1 -0.1)">
     <use xlink:href="#DejaVuSans-70"/>
     <use x="57.472656" xlink:href="#DejaVuSans-111"/>
     <use x="118.654297" xlink:href="#DejaVuSans-99"/>
     <use x="173.634766" xlink:href="#DejaVuSans-117"/>
     <use x="237.013672" xlink:href="#DejaVuSans-115"/>
     <use x="289.113281" xlink:href="#DejaVuSans-32"/>
     <use x="320.900391" xlink:href="#DejaVuSans-40"/>
     <use x="359.914062" xlink:href="#DejaVuSans-115"/>
     <use x="412.013672" xlink:href="#DejaVuSans-97"/>
     <use x="473.292969" xlink:href="#DejaVuSans-109"/>
     <use x="570.705078" xlink:href="#DejaVuSans-101"/>
     <use x="632.228516" xlink:href="#DejaVuSans-32"/>
     <use x="664.015625" xlink:href="#DejaVuSans-102"/>
     <use x="699.220703" xlink:href="#DejaVuSans-111"/>
     <use x="760.402344" xlink:href="#DejaVuSans-114"/>
     <use x="801.515625" xlink:href="#DejaVuSans-32"/>
     <use x="833.302734" xlink:href="#DejaVuSans-98"/>
     <use x="896.779297" xlink:href="#DejaVuSans-111"/>
     <use x="957.960938" xlink:href="#DejaVuSans-116"/>
     <use x="997.169922" xlink:href="#DejaVuSans-104"/>
     <use x="1060.548828" xlink:href="#DejaVuSans-41"/>
    </g>
   </g>
   <g id="text_2">
    <!-- Focus (Original) -->
    <defs>
     <path d="M 39.40625 66.21875 
Q 28.65625 66.21875 22.328125 58.203125 
Q 16.015625 50.203125 16.015625 36.375 
Q 16.015625 22.609375 22.328125 14.59375 
Q 28.65625 6.59375 39.40625 6.59375 
Q 50.140625 6.59375 56.421875 14.59375 
Q 62.703125 22.609375 62.703125 36.375 
Q 62.703125 50.203125 56.421875 58.203125 
Q 50.140625 66.21875 39.40625 66.21875 
z
M 39.40625 74.21875 
Q 54.734375 74.21875 63.90625 63.9375 
Q 73.09375 53.65625 73.09375 36.375 
Q 73.09375 19.140625 63.90625 8.859375 
Q 54.734375 -1.421875 39.40625 -1.421875 
Q 24.03125 -1.421875 14.8125 8.828125 
Q 5.609375 19.09375 5.609375 36.375 
Q 5.609375 53.65625 14.8125 63.9375 
Q 24.03125 74.21875 39.40625 74.21875 
z
" id="DejaVuSans-79"/>
     <path d="M 9.421875 54.6875 
L 18.40625 54.6875 
L 18.40625 0 
L 9.421875 0 
z
M 9.421875 75.984375 
L 18.40625 75.984375 
L 18.40625 64.59375 
L 9.421875 64.59375 
z
" id="DejaVuSans-105"/>
     <path d="M 45.40625 27.984375 
Q 45.40625 37.75 41.375 43.109375 
Q 37.359375 48.484375 30.078125 48.484375 
Q 22.859375 48.484375 18.828125 43.109375 
Q 14.796875 37.75 14.796875 27.984375 
Q 14.796875 18.265625 18.828125 12.890625 
Q 22.859375 7.515625 30.078125 7.515625 
Q 37.359375 7.515625 41.375 12.890625 
Q 45.40625 18.265625 45.40625 27.984375 
z
M 54.390625 6.78125 
Q 54.390625 -7.171875 48.1875 -13.984375 
Q 42 -20.796875 29.203125 -20.796875 
Q 24.46875 -20.796875 20.265625 -20.09375 
Q 16.0625 -19.390625 12.109375 -17.921875 
L 12.109375 -9.1875 
Q 16.0625 -11.328125 19.921875 -12.34375 
Q 23.78125 -13.375 27.78125 -13.375 
Q 36.625 -13.375 41.015625 -8.765625 
Q 45.40625 -4.15625 45.40625 5.171875 
L 45.40625 9.625 
Q 42.625 4.78125 38.28125 2.390625 
Q 33.9375 0 27.875 0 
Q 17.828125 0 11.671875 7.65625 
Q 5.515625 15.328125 5.515625 27.984375 
Q 5.515625 40.671875 11.671875 48.328125 
Q 17.828125 56 27.875 56 
Q 33.9375 56 38.28125 53.609375 
Q 42.625 51.21875 45.40625 46.390625 
L 45.40625 54.6875 
L 54.390625 54.6875 
z
" id="DejaVuSans-103"/>
     <path d="M 54.890625 33.015625 
L 54.890625 0 
L 45.90625 0 
L 45.90625 32.71875 
Q 45.90625 40.484375 42.875 44.328125 
Q 39.84375 48.1875 33.796875 48.1875 
Q 26.515625 48.1875 22.3125 43.546875 
Q 18.109375 38.921875 18.109375 30.90625 
L 18.109375 0 
L 9.078125 0 
L 9.078125 54.6875 
L 18.109375 54.6875 
L 18.109375 46.1875 
Q 21.34375 51.125 25.703125 53.5625 
Q 30.078125 56 35.796875 56 
Q 45.21875 56 50.046875 50.171875 
Q 54.890625 44.34375 54.890625 33.015625 
z
" id="DejaVuSans-110"/>
     <path d="M 9.421875 75.984375 
L 18.40625 75.984375 
L 18.40625 0 
L 9.421875 0 
z
" id="DejaVuSans-108"/>
    </defs>
    <g transform="translate(531.42715 132.413337)scale(0.1 -0.1)">
     <use xlink:href="#DejaVuSans-70"/>
     <use x="57.472656" xlink:href="#DejaVuSans-111"/>
     <use x="118.654297" xlink:href="#DejaVuSans-99"/>
     <use x="173.634766" xlink:href="#DejaVuSans-117"/>
     <use x="237.013672" xlink:href="#DejaVuSans-115"/>
     <use x="289.113281" xlink:href="#DejaVuSans-32"/>
     <use x="320.900391" xlink:href="#DejaVuSans-40"/>
     <use x="359.914062" xlink:href="#DejaVuSans-79"/>
     <use x="438.625" xlink:href="#DejaVuSans-114"/>
     <use x="479.738281" xlink:href="#DejaVuSans-105"/>
     <use x="507.521484" xlink:href="#DejaVuSans-103"/>
     <use x="570.998047" xlink:href="#DejaVuSans-105"/>
     <use x="598.78125" xlink:href="#DejaVuSans-110"/>
     <use x="662.160156" xlink:href="#DejaVuSans-97"/>
     <use x="723.439453" xlink:href="#DejaVuSans-108"/>
     <use x="751.222656" xlink:href="#DejaVuSans-41"/>
    </g>
   </g>
   <g id="text_3">
    <!-- Focus (Deeper) -->
    <defs>
     <path d="M 19.671875 64.796875 
L 19.671875 8.109375 
L 31.59375 8.109375 
Q 46.6875 8.109375 53.6875 14.9375 
Q 60.6875 21.78125 60.6875 36.53125 
Q 60.6875 51.171875 53.6875 57.984375 
Q 46.6875 64.796875 31.59375 64.796875 
z
M 9.8125 72.90625 
L 30.078125 72.90625 
Q 51.265625 72.90625 61.171875 64.09375 
Q 71.09375 55.28125 71.09375 36.53125 
Q 71.09375 17.671875 61.125 8.828125 
Q 51.171875 0 30.078125 0 
L 9.8125 0 
z
" id="DejaVuSans-68"/>
     <path d="M 18.109375 8.203125 
L 18.109375 -20.796875 
L 9.078125 -20.796875 
L 9.078125 54.6875 
L 18.109375 54.6875 
L 18.109375 46.390625 
Q 20.953125 51.265625 25.265625 53.625 
Q 29.59375 56 35.59375 56 
Q 45.5625 56 51.78125 48.09375 
Q 58.015625 40.1875 58.015625 27.296875 
Q 58.015625 14.40625 51.78125 6.484375 
Q 45.5625 -1.421875 35.59375 -1.421875 
Q 29.59375 -1.421875 25.265625 0.953125 
Q 20.953125 3.328125 18.109375 8.203125 
z
M 48.6875 27.296875 
Q 48.6875 37.203125 44.609375 42.84375 
Q 40.53125 48.484375 33.40625 48.484375 
Q 26.265625 48.484375 22.1875 42.84375 
Q 18.109375 37.203125 18.109375 27.296875 
Q 18.109375 17.390625 22.1875 11.75 
Q 26.265625 6.109375 33.40625 6.109375 
Q 40.53125 6.109375 44.609375 11.75 
Q 48.6875 17.390625 48.6875 27.296875 
z
" id="DejaVuSans-112"/>
    </defs>
    <g transform="translate(531.42715 145.766502)scale(0.1 -0.1)">
     <use xlink:href="#DejaVuSans-70"/>
     <use x="57.472656" xlink:href="#DejaVuSans-111"/>
     <use x="118.654297" xlink:href="#DejaVuSans-99"/>
     <use x="173.634766" xlink:href="#DejaVuSans-117"/>
     <use x="237.013672" xlink:href="#DejaVuSans-115"/>
     <use x="289.113281" xlink:href="#DejaVuSans-32"/>
     <use x="320.900391" xlink:href="#DejaVuSans-40"/>
     <use x="359.914062" xlink:href="#DejaVuSans-68"/>
     <use x="436.916016" xlink:href="#DejaVuSans-101"/>
     <use x="498.439453" xlink:href="#DejaVuSans-101"/>
     <use x="559.962891" xlink:href="#DejaVuSans-112"/>
     <use x="623.439453" xlink:href="#DejaVuSans-101"/>
     <use x="684.962891" xlink:href="#DejaVuSans-114"/>
     <use x="726.076172" xlink:href="#DejaVuSans-41"/>
    </g>
   </g>
   <g id="legend_1">
    <g id="patch_2">
     <path d="M 516.69375 53.234375 
L 693.542188 53.234375 
L 693.542188 12.2 
L 516.69375 12.2 
z
" style="fill:#ffffff;opacity:0.8;stroke:#cccccc;stroke-linejoin:miter;"/>
    </g>
    <g id="line2d_9">
     <path d="M 517.69375 17.298437 
L 537.69375 17.298437 
" style="fill:none;stroke:#00dd00;stroke-linecap:square;stroke-width:3;"/>
    </g>
    <g id="line2d_10"/>
    <g id="text_4">
     <!-- 0.8 m deeper, fixed focus -->
     <defs>
      <path d="M 31.78125 66.40625 
Q 24.171875 66.40625 20.328125 58.90625 
Q 16.5 51.421875 16.5 36.375 
Q 16.5 21.390625 20.328125 13.890625 
Q 24.171875 6.390625 31.78125 6.390625 
Q 39.453125 6.390625 43.28125 13.890625 
Q 47.125 21.390625 47.125 36.375 
Q 47.125 51.421875 43.28125 58.90625 
Q 39.453125 66.40625 31.78125 66.40625 
z
M 31.78125 74.21875 
Q 44.046875 74.21875 50.515625 64.515625 
Q 56.984375 54.828125 56.984375 36.375 
Q 56.984375 17.96875 50.515625 8.265625 
Q 44.046875 -1.421875 31.78125 -1.421875 
Q 19.53125 -1.421875 13.0625 8.265625 
Q 6.59375 17.96875 6.59375 36.375 
Q 6.59375 54.828125 13.0625 64.515625 
Q 19.53125 74.21875 31.78125 74.21875 
z
" id="DejaVuSans-48"/>
      <path d="M 10.6875 12.40625 
L 21 12.40625 
L 21 0 
L 10.6875 0 
z
" id="DejaVuSans-46"/>
      <path d="M 31.78125 34.625 
Q 24.75 34.625 20.71875 30.859375 
Q 16.703125 27.09375 16.703125 20.515625 
Q 16.703125 13.921875 20.71875 10.15625 
Q 24.75 6.390625 31.78125 6.390625 
Q 38.8125 6.390625 42.859375 10.171875 
Q 46.921875 13.96875 46.921875 20.515625 
Q 46.921875 27.09375 42.890625 30.859375 
Q 38.875 34.625 31.78125 34.625 
z
M 21.921875 38.8125 
Q 15.578125 40.375 12.03125 44.71875 
Q 8.5 49.078125 8.5 55.328125 
Q 8.5 64.0625 14.71875 69.140625 
Q 20.953125 74.21875 31.78125 74.21875 
Q 42.671875 74.21875 48.875 69.140625 
Q 55.078125 64.0625 55.078125 55.328125 
Q 55.078125 49.078125 51.53125 44.71875 
Q 48 40.375 41.703125 38.8125 
Q 48.828125 37.15625 52.796875 32.3125 
Q 56.78125 27.484375 56.78125 20.515625 
Q 56.78125 9.90625 50.3125 4.234375 
Q 43.84375 -1.421875 31.78125 -1.421875 
Q 19.734375 -1.421875 13.25 4.234375 
Q 6.78125 9.90625 6.78125 20.515625 
Q 6.78125 27.484375 10.78125 32.3125 
Q 14.796875 37.15625 21.921875 38.8125 
z
M 18.3125 54.390625 
Q 18.3125 48.734375 21.84375 45.5625 
Q 25.390625 42.390625 31.78125 42.390625 
Q 38.140625 42.390625 41.71875 45.5625 
Q 45.3125 48.734375 45.3125 54.390625 
Q 45.3125 60.0625 41.71875 63.234375 
Q 38.140625 66.40625 31.78125 66.40625 
Q 25.390625 66.40625 21.84375 63.234375 
Q 18.3125 60.0625 18.3125 54.390625 
z
" id="DejaVuSans-56"/>
      <path d="M 45.40625 46.390625 
L 45.40625 75.984375 
L 54.390625 75.984375 
L 54.390625 0 
L 45.40625 0 
L 45.40625 8.203125 
Q 42.578125 3.328125 38.25 0.953125 
Q 33.9375 -1.421875 27.875 -1.421875 
Q 17.96875 -1.421875 11.734375 6.484375 
Q 5.515625 14.40625 5.515625 27.296875 
Q 5.515625 40.1875 11.734375 48.09375 
Q 17.96875 56 27.875 56 
Q 33.9375 56 38.25 53.625 
Q 42.578125 51.265625 45.40625 46.390625 
z
M 14.796875 27.296875 
Q 14.796875 17.390625 18.875 11.75 
Q 22.953125 6.109375 30.078125 6.109375 
Q 37.203125 6.109375 41.296875 11.75 
Q 45.40625 17.390625 45.40625 27.296875 
Q 45.40625 37.203125 41.296875 42.84375 
Q 37.203125 48.484375 30.078125 48.484375 
Q 22.953125 48.484375 18.875 42.84375 
Q 14.796875 37.203125 14.796875 27.296875 
z
" id="DejaVuSans-100"/>
      <path d="M 11.71875 12.40625 
L 22.015625 12.40625 
L 22.015625 4 
L 14.015625 -11.625 
L 7.71875 -11.625 
L 11.71875 4 
z
" id="DejaVuSans-44"/>
      <path d="M 54.890625 54.6875 
L 35.109375 28.078125 
L 55.90625 0 
L 45.3125 0 
L 29.390625 21.484375 
L 13.484375 0 
L 2.875 0 
L 24.125 28.609375 
L 4.6875 54.6875 
L 15.28125 54.6875 
L 29.78125 35.203125 
L 44.28125 54.6875 
z
" id="DejaVuSans-120"/>
     </defs>
     <g transform="translate(545.69375 20.798437)scale(0.1 -0.1)">
      <use xlink:href="#DejaVuSans-48"/>
      <use x="63.623047" xlink:href="#DejaVuSans-46"/>
      <use x="95.410156" xlink:href="#DejaVuSans-56"/>
      <use x="159.033203" xlink:href="#DejaVuSans-32"/>
      <use x="190.820312" xlink:href="#DejaVuSans-109"/>
      <use x="288.232422" xlink:href="#DejaVuSans-32"/>
      <use x="320.019531" xlink:href="#DejaVuSans-100"/>
      <use x="383.496094" xlink:href="#DejaVuSans-101"/>
      <use x="445.019531" xlink:href="#DejaVuSans-101"/>
      <use x="506.542969" xlink:href="#DejaVuSans-112"/>
      <use x="570.019531" xlink:href="#DejaVuSans-101"/>
      <use x="631.542969" xlink:href="#DejaVuSans-114"/>
      <use x="672.65625" xlink:href="#DejaVuSans-44"/>
      <use x="704.443359" xlink:href="#DejaVuSans-32"/>
      <use x="736.230469" xlink:href="#DejaVuSans-102"/>
      <use x="771.435547" xlink:href="#DejaVuSans-105"/>
      <use x="799.21875" xlink:href="#DejaVuSans-120"/>
      <use x="858.351562" xlink:href="#DejaVuSans-101"/>
      <use x="919.875" xlink:href="#DejaVuSans-100"/>
      <use x="983.351562" xlink:href="#DejaVuSans-32"/>
      <use x="1015.138672" xlink:href="#DejaVuSans-102"/>
      <use x="1050.34375" xlink:href="#DejaVuSans-111"/>
      <use x="1111.525391" xlink:href="#DejaVuSans-99"/>
      <use x="1166.505859" xlink:href="#DejaVuSans-117"/>
      <use x="1229.884766" xlink:href="#DejaVuSans-115"/>
     </g>
    </g>
    <g id="line2d_11">
     <path d="M 517.69375 31.976562 
L 537.69375 31.976562 
" style="fill:none;stroke:#666666;stroke-linecap:square;stroke-width:3;"/>
    </g>
    <g id="line2d_12"/>
    <g id="text_5">
     <!-- Original -->
     <g transform="translate(545.69375 35.476562)scale(0.1 -0.1)">
      <use xlink:href="#DejaVuSans-79"/>
      <use x="78.710938" xlink:href="#DejaVuSans-114"/>
      <use x="119.824219" xlink:href="#DejaVuSans-105"/>
      <use x="147.607422" xlink:href="#DejaVuSans-103"/>
      <use x="211.083984" xlink:href="#DejaVuSans-105"/>
      <use x="238.867188" xlink:href="#DejaVuSans-110"/>
      <use x="302.246094" xlink:href="#DejaVuSans-97"/>
      <use x="363.525391" xlink:href="#DejaVuSans-108"/>
     </g>
    </g>
    <g id="line2d_13">
     <path d="M 517.69375 46.654687 
L 537.69375 46.654687 
" style="fill:none;stroke:#6666ff;stroke-linecap:square;stroke-width:3;"/>
    </g>
    <g id="line2d_14"/>
    <g id="text_6">
     <!-- 0.8 m deeper, fixed diameter -->
     <g transform="translate(545.69375 50.154687)scale(0.1 -0.1)">
      <use xlink:href="#DejaVuSans-48"/>
      <use x="63.623047" xlink:href="#DejaVuSans-46"/>
      <use x="95.410156" xlink:href="#DejaVuSans-56"/>
      <use x="159.033203" xlink:href="#DejaVuSans-32"/>
      <use x="190.820312" xlink:href="#DejaVuSans-109"/>
      <use x="288.232422" xlink:href="#DejaVuSans-32"/>
      <use x="320.019531" xlink:href="#DejaVuSans-100"/>
      <use x="383.496094" xlink:href="#DejaVuSans-101"/>
      <use x="445.019531" xlink:href="#DejaVuSans-101"/>
      <use x="506.542969" xlink:href="#DejaVuSans-112"/>
      <use x="570.019531" xlink:href="#DejaVuSans-101"/>
      <use x="631.542969" xlink:href="#DejaVuSans-114"/>
      <use x="672.65625" xlink:href="#DejaVuSans-44"/>
      <use x="704.443359" xlink:href="#DejaVuSans-32"/>
      <use x="736.230469" xlink:href="#DejaVuSans-102"/>
      <use x="771.435547" xlink:href="#DejaVuSans-105"/>
      <use x="799.21875" xlink:href="#DejaVuSans-120"/>
      <use x="858.351562" xlink:href="#DejaVuSans-101"/>
      <use x="919.875" xlink:href="#DejaVuSans-100"/>
      <use x="983.351562" xlink:href="#DejaVuSans-32"/>
      <use x="1015.138672" xlink:href="#DejaVuSans-100"/>
      <use x="1078.615234" xlink:href="#DejaVuSans-105"/>
      <use x="1106.398438" xlink:href="#DejaVuSans-97"/>
      <use x="1167.677734" xlink:href="#DejaVuSans-109"/>
      <use x="1265.089844" xlink:href="#DejaVuSans-101"/>
      <use x="1326.613281" xlink:href="#DejaVuSans-116"/>
      <use x="1365.822266" xlink:href="#DejaVuSans-101"/>
      <use x="1427.345703" xlink:href="#DejaVuSans-114"/>
     </g>
    </g>
   </g>
  </g>
 </g>
 <defs>
  <clipPath id="p41ebdd1012">
   <rect height="271.8" width="669.6" x="28.942188" y="7.2"/>
  </clipPath>
 </defs>
</svg>
