<?xml version="1.0" encoding="utf-8" standalone="no"?>
<!DOCTYPE svg PUBLIC "-//W3C//DTD SVG 1.1//EN"
  "http://www.w3.org/Graphics/SVG/1.1/DTD/svg11.dtd">
<!-- Created with matplotlib (https://matplotlib.org/) -->
<svg height="302.878125pt" version="1.1" viewBox="0 0 721.645312 302.878125" width="721.645312pt" xmlns="http://www.w3.org/2000/svg" xmlns:xlink="http://www.w3.org/1999/xlink">
 <defs>
  <style type="text/css">
*{stroke-linecap:butt;stroke-linejoin:round;}
  </style>
 </defs>
 <g id="figure_1">
  <g id="patch_1">
   <path d="M 0 302.878125 
L 721.645312 302.878125 
L 721.645312 0 
L 0 0 
z
" style="fill:#ffffff;"/>
  </g>
  <g id="axes_1">
   <g id="line2d_1">
    <path clip-path="url(#p390e814cc8)" d="M 70.781521 143.1 
L 71.02886 135.286299 
L 71.523537 129.579841 
L 72.265552 124.008426 
L 73.254905 118.502575 
L 74.491597 113.050678 
L 75.975627 107.653728 
L 77.706996 102.31691 
L 79.438364 97.667772 
L 81.417071 92.951878 
L 83.643117 88.213169 
L 86.1165 83.484782 
L 88.837222 78.792975 
L 91.557945 74.52881 
L 94.526005 70.276594 
L 97.741404 66.062931 
L 101.204141 61.911203 
L 104.666878 58.102645 
L 108.376954 54.352731 
L 112.334368 50.68411 
L 116.291782 47.319034 
L 120.496534 44.041677 
L 124.701286 41.042421 
L 129.153377 38.143397 
L 133.605468 35.506387 
L 138.304897 32.986357 
L 143.004326 30.719068 
L 147.703755 28.689493 
L 152.650522 26.796248 
L 157.59729 25.140599 
L 162.544057 23.712661 
L 167.738163 22.44957 
L 172.932269 21.421084 
L 178.126375 20.621295 
L 183.32048 20.045742 
L 188.514586 19.691289 
L 193.708692 19.556031 
L 198.902798 19.639249 
L 204.096904 19.941385 
L 209.291009 20.464058 
L 214.485115 21.210105 
L 219.679221 22.183659 
L 224.873327 23.390272 
L 229.820094 24.762611 
L 234.766862 26.360481 
L 239.713629 28.19329 
L 244.660396 30.272487 
L 249.359825 32.488577 
L 254.059254 34.954002 
L 258.511345 37.535473 
L 262.963436 40.374446 
L 267.168188 43.311917 
L 271.37294 46.521413 
L 275.330354 49.815718 
L 279.287768 53.405134 
L 282.997844 57.071035 
L 286.460581 60.79019 
L 289.923318 64.838606 
L 293.138717 68.939723 
L 296.106778 73.068727 
L 299.074838 77.591276 
L 301.79556 82.157311 
L 304.268944 86.741576 
L 306.494989 91.313464 
L 308.473696 95.83442 
L 310.452403 100.928989 
L 312.183772 106.042141 
L 313.667802 111.142581 
L 314.904494 116.18213 
L 315.893847 121.07716 
L 316.635862 125.663083 
L 317.130539 129.579841 
L 317.625216 135.286299 
L 317.872554 143.1 
L 317.872554 143.1 
" style="fill:none;stroke:#000000;stroke-linecap:square;stroke-width:3;"/>
   </g>
   <g id="line2d_2">
    <path clip-path="url(#p390e814cc8)" d="M 70.781521 143.1 
L 71.02886 150.913701 
L 71.523537 156.620159 
L 72.265552 162.191574 
L 73.254905 167.697425 
L 74.491597 173.149322 
L 75.975627 178.546272 
L 77.706996 183.88309 
L 79.438364 188.532228 
L 81.417071 193.248122 
L 83.643117 197.986831 
L 86.1165 202.715218 
L 88.837222 207.407025 
L 91.557945 211.67119 
L 94.526005 215.923406 
L 97.741404 220.137069 
L 101.204141 224.288797 
L 104.666878 228.097355 
L 108.376954 231.847269 
L 112.334368 235.51589 
L 116.291782 238.880966 
L 120.496534 242.158323 
L 124.701286 245.157579 
L 129.153377 248.056603 
L 133.605468 250.693613 
L 138.304897 253.213643 
L 143.004326 255.480932 
L 147.703755 257.510507 
L 152.650522 259.403752 
L 157.59729 261.059401 
L 162.544057 262.487339 
L 167.738163 263.75043 
L 172.932269 264.778916 
L 178.126375 265.578705 
L 183.32048 266.154258 
L 188.514586 266.508711 
L 193.708692 266.643969 
L 198.902798 266.560751 
L 204.096904 266.258615 
L 209.291009 265.735942 
L 214.485115 264.989895 
L 219.679221 264.016341 
L 224.873327 262.809728 
L 229.820094 261.437389 
L 234.766862 259.839519 
L 239.713629 258.00671 
L 244.660396 255.927513 
L 249.359825 253.711423 
L 254.059254 251.245998 
L 258.511345 248.664527 
L 262.963436 245.825554 
L 267.168188 242.888083 
L 271.37294 239.678587 
L 275.330354 236.384282 
L 279.287768 232.794866 
L 282.997844 229.128965 
L 286.460581 225.40981 
L 289.923318 221.361394 
L 293.138717 217.260277 
L 296.106778 213.131273 
L 299.074838 208.608724 
L 301.79556 204.042689 
L 304.268944 199.458424 
L 306.494989 194.886536 
L 308.473696 190.36558 
L 310.452403 185.271011 
L 312.183772 180.157859 
L 313.667802 175.057419 
L 314.904494 170.01787 
L 315.893847 165.12284 
L 316.635862 160.536917 
L 317.130539 156.620159 
L 317.625216 150.913701 
L 317.872554 143.1 
L 317.872554 143.1 
" style="fill:none;stroke:#000000;stroke-linecap:square;stroke-width:3;"/>
   </g>
   <g id="line2d_3">
    <path clip-path="url(#p390e814cc8)" d="M 441.418071 143.1 
L 441.665409 135.286299 
L 442.160086 129.579841 
L 442.902101 124.008426 
L 443.891454 118.502575 
L 445.128146 113.050678 
L 446.612177 107.653728 
L 448.343545 102.31691 
L 450.074914 97.667772 
L 452.053621 92.951878 
L 454.279666 88.213169 
L 456.75305 83.484782 
L 459.473772 78.792975 
L 462.194494 74.52881 
L 465.162554 70.276594 
L 468.377953 66.062931 
L 471.84069 61.911203 
L 475.303428 58.102645 
L 479.013503 54.352731 
L 482.970917 50.68411 
L 486.928331 47.319034 
L 491.133083 44.041677 
L 495.337836 41.042421 
L 499.789926 38.143397 
L 504.242017 35.506387 
L 508.941446 32.986357 
L 513.640875 30.719068 
L 518.340304 28.689493 
L 523.287072 26.796248 
L 528.233839 25.140599 
L 533.180606 23.712661 
L 538.374712 22.44957 
L 543.568818 21.421084 
L 548.762924 20.621295 
L 553.95703 20.045742 
L 559.151135 19.691289 
L 564.345241 19.556031 
L 569.539347 19.639249 
L 574.733453 19.941385 
L 579.927559 20.464058 
L 585.121664 21.210105 
L 590.31577 22.183659 
L 595.509876 23.390272 
L 600.456643 24.762611 
L 605.403411 26.360481 
L 610.350178 28.19329 
L 615.296946 30.272487 
L 619.996375 32.488577 
L 624.695804 34.954002 
L 629.147895 37.535473 
L 633.599985 40.374446 
L 637.804737 43.311917 
L 642.00949 46.521413 
L 645.966904 49.815718 
L 649.924318 53.405134 
L 653.634393 57.071035 
L 657.09713 60.79019 
L 660.559868 64.838606 
L 663.775266 68.939723 
L 666.743327 73.068727 
L 669.711387 77.591276 
L 672.432109 82.157311 
L 674.905493 86.741576 
L 677.131539 91.313464 
L 679.110245 95.83442 
L 681.088952 100.928989 
L 682.820321 106.042141 
L 684.304351 111.142581 
L 685.541043 116.18213 
L 686.530397 121.07716 
L 687.272412 125.663083 
L 687.767088 129.579841 
L 688.261765 135.286299 
L 688.509104 143.1 
L 688.509104 143.1 
" style="fill:none;stroke:#000000;stroke-linecap:square;stroke-width:3;"/>
   </g>
   <g id="line2d_4">
    <path clip-path="url(#p390e814cc8)" d="M 441.418071 143.1 
L 441.665409 150.913701 
L 442.160086 156.620159 
L 442.902101 162.191574 
L 443.891454 167.697425 
L 445.128146 173.149322 
L 446.612177 178.546272 
L 448.343545 183.88309 
L 450.074914 188.532228 
L 452.053621 193.248122 
L 454.279666 197.986831 
L 456.75305 202.715218 
L 459.473772 207.407025 
L 462.194494 211.67119 
L 465.162554 215.923406 
L 468.377953 220.137069 
L 471.84069 224.288797 
L 475.303428 228.097355 
L 479.013503 231.847269 
L 482.970917 235.51589 
L 486.928331 238.880966 
L 491.133083 242.158323 
L 495.337836 245.157579 
L 499.789926 248.056603 
L 504.242017 250.693613 
L 508.941446 253.213643 
L 513.640875 255.480932 
L 518.340304 257.510507 
L 523.287072 259.403752 
L 528.233839 261.059401 
L 533.180606 262.487339 
L 538.374712 263.75043 
L 543.568818 264.778916 
L 548.762924 265.578705 
L 553.95703 266.154258 
L 559.151135 266.508711 
L 564.345241 266.643969 
L 569.539347 266.560751 
L 574.733453 266.258615 
L 579.927559 265.735942 
L 585.121664 264.989895 
L 590.31577 264.016341 
L 595.509876 262.809728 
L 600.456643 261.437389 
L 605.403411 259.839519 
L 610.350178 258.00671 
L 615.296946 255.927513 
L 619.996375 253.711423 
L 624.695804 251.245998 
L 629.147895 248.664527 
L 633.599985 245.825554 
L 637.804737 242.888083 
L 642.00949 239.678587 
L 645.966904 236.384282 
L 649.924318 232.794866 
L 653.634393 229.128965 
L 657.09713 225.40981 
L 660.559868 221.361394 
L 663.775266 217.260277 
L 666.743327 213.131273 
L 669.711387 208.608724 
L 672.432109 204.042689 
L 674.905493 199.458424 
L 677.131539 194.886536 
L 679.110245 190.36558 
L 681.088952 185.271011 
L 682.820321 180.157859 
L 684.304351 175.057419 
L 685.541043 170.01787 
L 686.530397 165.12284 
L 687.272412 160.536917 
L 687.767088 156.620159 
L 688.261765 150.913701 
L 688.509104 143.1 
L 688.509104 143.1 
" style="fill:none;stroke:#000000;stroke-linecap:square;stroke-width:3;"/>
   </g>
   <g id="patch_2">
    <path d="M 172.133516 164.586415 
Q 189.730527 146.989404 207.327537 129.392394 
L 203.43845 125.503307 
Q 209.802728 123.381669 216.167006 121.260032 
Q 214.045369 127.62431 211.923731 133.988588 
L 208.034644 130.099501 
Q 190.437634 147.696511 172.840623 165.293522 
L 172.133516 164.586415 
z
" style="stroke:#000000;stroke-linecap:round;"/>
   </g>
   <g id="text_1">
    <!-- 1 -->
    <defs>
     <path d="M 12.40625 8.296875 
L 28.515625 8.296875 
L 28.515625 63.921875 
L 10.984375 60.40625 
L 10.984375 69.390625 
L 28.421875 72.90625 
L 38.28125 72.90625 
L 38.28125 8.296875 
L 54.390625 8.296875 
L 54.390625 0 
L 12.40625 0 
z
" id="DejaVuSans-49"/>
    </defs>
    <g transform="translate(216.167006 121.260032)scale(0.25 -0.25)">
     <use xlink:href="#DejaVuSans-49"/>
    </g>
   </g>
   <g id="patch_3">
    <path d="M 215.813453 165.293522 
Q 198.216442 147.696511 180.619432 130.099501 
L 176.730344 133.988588 
Q 174.608707 127.62431 172.48707 121.260032 
Q 178.851348 123.381669 185.215626 125.503307 
L 181.326538 129.392394 
Q 198.923549 146.989404 216.520559 164.586415 
L 215.813453 165.293522 
z
" style="stroke:#000000;stroke-linecap:round;"/>
   </g>
   <g id="text_2">
    <!-- 2 -->
    <defs>
     <path d="M 19.1875 8.296875 
L 53.609375 8.296875 
L 53.609375 0 
L 7.328125 0 
L 7.328125 8.296875 
Q 12.9375 14.109375 22.625 23.890625 
Q 32.328125 33.6875 34.8125 36.53125 
Q 39.546875 41.84375 41.421875 45.53125 
Q 43.3125 49.21875 43.3125 52.78125 
Q 43.3125 58.59375 39.234375 62.25 
Q 35.15625 65.921875 28.609375 65.921875 
Q 23.96875 65.921875 18.8125 64.3125 
Q 13.671875 62.703125 7.8125 59.421875 
L 7.8125 69.390625 
Q 13.765625 71.78125 18.9375 73 
Q 24.125 74.21875 28.421875 74.21875 
Q 39.75 74.21875 46.484375 68.546875 
Q 53.21875 62.890625 53.21875 53.421875 
Q 53.21875 48.921875 51.53125 44.890625 
Q 49.859375 40.875 45.40625 35.40625 
Q 44.1875 33.984375 37.640625 27.21875 
Q 31.109375 20.453125 19.1875 8.296875 
z
" id="DejaVuSans-50"/>
    </defs>
    <g transform="translate(172.48707 121.260032)scale(0.25 -0.25)">
     <use xlink:href="#DejaVuSans-50"/>
    </g>
   </g>
   <g id="patch_4">
    <path d="M 542.770066 164.586415 
Q 560.367076 146.989404 577.964087 129.392394 
L 574.074999 125.503307 
Q 580.439277 123.381669 586.803555 121.260032 
Q 584.681918 127.62431 582.560281 133.988588 
L 578.671193 130.099501 
Q 561.074183 147.696511 543.477172 165.293522 
L 542.770066 164.586415 
z
" style="stroke:#000000;stroke-linecap:round;"/>
   </g>
   <g id="text_3">
    <!-- 3 -->
    <defs>
     <path d="M 40.578125 39.3125 
Q 47.65625 37.796875 51.625 33 
Q 55.609375 28.21875 55.609375 21.1875 
Q 55.609375 10.40625 48.1875 4.484375 
Q 40.765625 -1.421875 27.09375 -1.421875 
Q 22.515625 -1.421875 17.65625 -0.515625 
Q 12.796875 0.390625 7.625 2.203125 
L 7.625 11.71875 
Q 11.71875 9.328125 16.59375 8.109375 
Q 21.484375 6.890625 26.8125 6.890625 
Q 36.078125 6.890625 40.9375 10.546875 
Q 45.796875 14.203125 45.796875 21.1875 
Q 45.796875 27.640625 41.28125 31.265625 
Q 36.765625 34.90625 28.71875 34.90625 
L 20.21875 34.90625 
L 20.21875 43.015625 
L 29.109375 43.015625 
Q 36.375 43.015625 40.234375 45.921875 
Q 44.09375 48.828125 44.09375 54.296875 
Q 44.09375 59.90625 40.109375 62.90625 
Q 36.140625 65.921875 28.71875 65.921875 
Q 24.65625 65.921875 20.015625 65.03125 
Q 15.375 64.15625 9.8125 62.3125 
L 9.8125 71.09375 
Q 15.4375 72.65625 20.34375 73.4375 
Q 25.25 74.21875 29.59375 74.21875 
Q 40.828125 74.21875 47.359375 69.109375 
Q 53.90625 64.015625 53.90625 55.328125 
Q 53.90625 49.265625 50.4375 45.09375 
Q 46.96875 40.921875 40.578125 39.3125 
z
" id="DejaVuSans-51"/>
    </defs>
    <g transform="translate(586.803555 121.260032)scale(0.25 -0.25)">
     <use xlink:href="#DejaVuSans-51"/>
    </g>
   </g>
   <g id="patch_5">
    <path d="M 586.450002 165.293522 
Q 568.852991 147.696511 551.255981 130.099501 
L 547.366894 133.988588 
Q 545.245256 127.62431 543.123619 121.260032 
Q 549.487897 123.381669 555.852175 125.503307 
L 551.963088 129.392394 
Q 569.560098 146.989404 587.157109 164.586415 
L 586.450002 165.293522 
z
" style="stroke:#000000;stroke-linecap:round;"/>
   </g>
   <g id="text_4">
    <!-- 4 -->
    <defs>
     <path d="M 37.796875 64.3125 
L 12.890625 25.390625 
L 37.796875 25.390625 
z
M 35.203125 72.90625 
L 47.609375 72.90625 
L 47.609375 25.390625 
L 58.015625 25.390625 
L 58.015625 17.1875 
L 47.609375 17.1875 
L 47.609375 0 
L 37.796875 0 
L 37.796875 17.1875 
L 4.890625 17.1875 
L 4.890625 26.703125 
z
" id="DejaVuSans-52"/>
    </defs>
    <g transform="translate(543.123619 121.260032)scale(0.25 -0.25)">
     <use xlink:href="#DejaVuSans-52"/>
    </g>
   </g>
  </g>
 </g>
 <defs>
  <clipPath id="p390e814cc8">
   <rect height="271.8" width="669.6" x="44.845313" y="7.2"/>
  </clipPath>
 </defs>
</svg>
