<?xml version="1.0" encoding="utf-8" standalone="no"?>
<!DOCTYPE svg PUBLIC "-//W3C//DTD SVG 1.1//EN"
  "http://www.w3.org/Graphics/SVG/1.1/DTD/svg11.dtd">
<!-- Created with matplotlib (https://matplotlib.org/) -->
<svg height="302.878125pt" version="1.1" viewBox="0 0 710.084375 302.878125" width="710.084375pt" xmlns="http://www.w3.org/2000/svg" xmlns:xlink="http://www.w3.org/1999/xlink">
 <defs>
  <style type="text/css">
*{stroke-linecap:butt;stroke-linejoin:round;}
  </style>
 </defs>
 <g id="figure_1">
  <g id="patch_1">
   <path d="M 0 302.878125 
L 710.084375 302.878125 
L 710.084375 0 
L 0 0 
z
" style="fill:#ffffff;"/>
  </g>
  <g id="axes_1">
   <g id="line2d_1">
    <path clip-path="url(#pf435177456)" d="M 81.610817 76.374128 
L 91.501943 86.106969 
L 101.290036 95.426787 
L 110.975096 104.343371 
L 120.557124 112.866408 
L 130.139152 121.092353 
L 139.618147 128.937529 
L 148.994109 136.411417 
L 158.370072 143.600853 
L 167.643002 150.431505 
L 176.8129 156.912646 
L 185.982797 163.121701 
L 195.049662 168.993475 
L 204.013495 174.537035 
L 212.977327 179.820601 
L 221.838127 184.787907 
L 230.698927 189.501162 
L 239.456694 193.909973 
L 248.214462 198.070606 
L 256.869196 201.938474 
L 265.523931 205.56397 
L 274.178666 208.947093 
L 282.730368 212.051878 
L 291.28207 214.920027 
L 299.73074 217.521242 
L 308.17941 219.891489 
L 316.628079 222.030767 
L 325.076749 223.939077 
L 333.422386 225.597353 
L 341.768023 227.030259 
L 350.11366 228.237796 
L 358.459297 229.219963 
L 366.804934 229.97676 
L 375.150571 230.508188 
L 383.393176 230.811841 
L 391.63578 230.895655 
L 399.878385 230.759629 
L 408.12099 230.403764 
L 416.363594 229.82806 
L 424.709231 229.02118 
L 433.054868 227.988931 
L 441.400505 226.731312 
L 449.746142 225.248324 
L 458.09178 223.539965 
L 466.437417 221.606237 
L 474.886086 219.419075 
L 483.334756 217.000944 
L 491.783426 214.351845 
L 500.335128 211.435228 
L 508.88683 208.281975 
L 517.438532 204.892086 
L 526.093267 201.220424 
L 534.748002 197.306389 
L 543.402736 193.149981 
L 552.160504 188.697374 
L 560.918271 183.996588 
L 569.779071 178.987925 
L 578.639871 173.72521 
L 587.603703 168.142799 
L 596.670568 162.231729 
L 605.737433 156.054654 
L 614.907331 149.536827 
L 624.077228 142.746914 
L 633.350158 135.604022 
L 642.726121 128.098876 
L 652.102084 120.309278 
L 661.581079 112.144923 
L 671.163107 103.596329 
L 680.745135 94.750643 
L 690.430195 85.507941 
L 699.703125 76.374128 
L 699.703125 76.374128 
" style="fill:none;stroke:#00dd00;stroke-linecap:square;stroke-width:3;"/>
   </g>
   <g id="line2d_2">
    <defs>
     <path d="M -5 5 
L 5 -5 
M -5 -5 
L 5 5 
" id="m7b688f59e5" style="stroke:#00dd00;"/>
    </defs>
    <g clip-path="url(#pf435177456)">
     <use style="fill:#00dd00;stroke:#00dd00;" x="390.656971" xlink:href="#m7b688f59e5" y="76.374128"/>
    </g>
   </g>
   <g id="line2d_3">
    <path clip-path="url(#pf435177456)" d="M 81.610817 62.937339 
L 91.295878 73.299624 
L 100.877905 83.227009 
L 110.356901 92.729912 
L 119.732863 101.818637 
L 129.108826 110.598176 
L 138.381756 118.977127 
L 147.551654 126.965572 
L 156.618519 134.57348 
L 165.685384 141.892251 
L 174.649216 148.843627 
L 183.510016 155.437354 
L 192.370816 161.754937 
L 201.128583 167.727715 
L 209.88635 173.430733 
L 218.541085 178.801641 
L 227.092787 183.849845 
L 235.64449 188.640836 
L 244.093159 193.121521 
L 252.541829 197.351152 
L 260.887466 201.282724 
L 269.233103 204.969328 
L 277.475708 208.369969 
L 285.718312 211.531654 
L 293.960917 214.454383 
L 302.100489 217.106085 
L 310.240061 219.524766 
L 318.379633 221.710429 
L 326.416172 223.639811 
L 334.452711 225.342036 
L 342.489251 226.817103 
L 350.52579 228.065013 
L 358.56233 229.085765 
L 366.495837 229.870623 
L 374.429343 230.434111 
L 382.36285 230.776229 
L 390.296357 230.896976 
L 398.229864 230.796353 
L 406.163371 230.47436 
L 414.096878 229.930997 
L 422.030385 229.166263 
L 429.963892 228.18016 
L 438.000431 226.955548 
L 446.03697 225.503779 
L 454.07351 223.824852 
L 462.110049 221.918768 
L 470.146589 219.785527 
L 478.286161 217.393392 
L 486.425733 214.768237 
L 494.565305 211.910063 
L 502.807909 208.778247 
L 511.050514 205.407476 
L 519.293118 201.797748 
L 527.638755 197.899444 
L 535.984392 193.756173 
L 544.433062 189.312228 
L 552.881732 184.61723 
L 561.433434 179.609311 
L 569.985136 174.34418 
L 578.639871 168.753732 
L 587.294606 162.899835 
L 596.052373 156.708077 
L 604.913173 150.168937 
L 613.773973 143.353653 
L 622.737805 136.178143 
L 631.80467 128.632663 
L 640.871535 120.798046 
L 650.041433 112.580315 
L 659.314363 103.969502 
L 668.587293 95.05626 
L 677.963256 85.736494 
L 687.442251 76.000012 
L 697.024279 65.836509 
L 699.703125 62.937339 
L 699.703125 62.937339 
" style="fill:none;stroke:#6666ff;stroke-linecap:square;stroke-width:3;"/>
   </g>
   <g id="line2d_4">
    <defs>
     <path d="M -5 5 
L 5 -5 
M -5 -5 
L 5 5 
" id="m4709f9e8ae" style="stroke:#6666ff;"/>
    </defs>
    <g clip-path="url(#pf435177456)">
     <use style="fill:#6666ff;stroke:#6666ff;" x="390.656971" xlink:href="#m4709f9e8ae" y="88.735974"/>
    </g>
   </g>
   <g id="line2d_5">
    <path clip-path="url(#pf435177456)" d="M 81.610817 55.302799 
L 91.192845 66.022665 
L 100.67184 76.295084 
L 110.047803 86.130829 
L 119.320733 95.540558 
L 128.593663 104.634111 
L 137.763561 113.3157 
L 146.830426 121.595746 
L 155.794258 129.484554 
L 164.758091 137.077914 
L 173.61889 144.29362 
L 182.376658 151.141743 
L 191.134425 157.707846 
L 199.78916 163.919637 
L 208.340862 169.786953 
L 216.892564 175.385364 
L 225.341234 180.652259 
L 233.789904 185.656689 
L 242.135541 190.342408 
L 250.481178 194.772024 
L 258.723782 198.895574 
L 266.966387 202.769307 
L 275.105959 206.349466 
L 283.245531 209.686013 
L 291.28207 212.741321 
L 299.31861 215.559145 
L 307.252116 218.107909 
L 315.185623 220.425239 
L 323.11913 222.511138 
L 331.052637 224.365604 
L 338.883111 225.969042 
L 346.713586 227.34702 
L 354.54406 228.499537 
L 362.374534 229.426595 
L 370.205009 230.128191 
L 378.035483 230.604328 
L 385.762925 230.85317 
L 393.490366 230.882445 
L 401.217808 230.692155 
L 408.94525 230.282298 
L 416.775724 229.642999 
L 424.606199 228.77824 
L 432.436673 227.688021 
L 440.267147 226.372341 
L 448.097622 224.831201 
L 455.928096 223.064601 
L 463.861603 221.044826 
L 471.79511 218.793619 
L 479.728616 216.310979 
L 487.662123 213.596907 
L 495.698663 210.611626 
L 503.735202 207.388863 
L 511.874774 203.882713 
L 520.014346 200.132952 
L 528.153918 196.139579 
L 536.396523 191.847402 
L 544.639127 187.305407 
L 552.984764 182.452116 
L 561.330401 177.342723 
L 569.779071 171.909387 
L 578.330773 166.142505 
L 586.882475 160.106718 
L 595.53721 153.724427 
L 604.191945 147.066712 
L 612.949712 140.049376 
L 621.810512 132.662467 
L 630.671312 124.986862 
L 639.635144 116.928256 
L 648.702009 108.476461 
L 657.871907 99.621171 
L 667.041805 90.456693 
L 676.314735 80.874824 
L 685.690697 70.865026 
L 695.169693 60.416642 
L 699.703125 55.302799 
L 699.703125 55.302799 
" style="fill:none;stroke:#666666;stroke-linecap:square;stroke-width:3;"/>
   </g>
   <g id="line2d_6">
    <defs>
     <path d="M -5 5 
L 5 -5 
M -5 -5 
L 5 5 
" id="m3fa861cda8" style="stroke:#666666;"/>
    </defs>
    <g clip-path="url(#pf435177456)">
     <use style="fill:#666666;stroke:#666666;" x="390.656971" xlink:href="#m3fa861cda8" y="94.916897"/>
    </g>
   </g>
   <g id="legend_1">
    <g id="patch_2">
     <path d="M 553.5875 53.234375 
L 694.703125 53.234375 
L 694.703125 12.2 
L 553.5875 12.2 
z
" style="fill:#ffffff;opacity:0.8;stroke:#cccccc;stroke-linejoin:miter;"/>
    </g>
    <g id="line2d_7">
     <path d="M 554.5875 17.298437 
L 574.5875 17.298437 
" style="fill:none;stroke:#00dd00;stroke-linecap:square;stroke-width:3;"/>
    </g>
    <g id="line2d_8"/>
    <g id="text_1">
     <!-- f/D=0.25, area=1.000 -->
     <defs>
      <path d="M 37.109375 75.984375 
L 37.109375 68.5 
L 28.515625 68.5 
Q 23.6875 68.5 21.796875 66.546875 
Q 19.921875 64.59375 19.921875 59.515625 
L 19.921875 54.6875 
L 34.71875 54.6875 
L 34.71875 47.703125 
L 19.921875 47.703125 
L 19.921875 0 
L 10.890625 0 
L 10.890625 47.703125 
L 2.296875 47.703125 
L 2.296875 54.6875 
L 10.890625 54.6875 
L 10.890625 58.5 
Q 10.890625 67.625 15.140625 71.796875 
Q 19.390625 75.984375 28.609375 75.984375 
z
" id="DejaVuSans-102"/>
      <path d="M 25.390625 72.90625 
L 33.6875 72.90625 
L 8.296875 -9.28125 
L 0 -9.28125 
z
" id="DejaVuSans-47"/>
      <path d="M 19.671875 64.796875 
L 19.671875 8.109375 
L 31.59375 8.109375 
Q 46.6875 8.109375 53.6875 14.9375 
Q 60.6875 21.78125 60.6875 36.53125 
Q 60.6875 51.171875 53.6875 57.984375 
Q 46.6875 64.796875 31.59375 64.796875 
z
M 9.8125 72.90625 
L 30.078125 72.90625 
Q 51.265625 72.90625 61.171875 64.09375 
Q 71.09375 55.28125 71.09375 36.53125 
Q 71.09375 17.671875 61.125 8.828125 
Q 51.171875 0 30.078125 0 
L 9.8125 0 
z
" id="DejaVuSans-68"/>
      <path d="M 10.59375 45.40625 
L 73.1875 45.40625 
L 73.1875 37.203125 
L 10.59375 37.203125 
z
M 10.59375 25.484375 
L 73.1875 25.484375 
L 73.1875 17.1875 
L 10.59375 17.1875 
z
" id="DejaVuSans-61"/>
      <path d="M 31.78125 66.40625 
Q 24.171875 66.40625 20.328125 58.90625 
Q 16.5 51.421875 16.5 36.375 
Q 16.5 21.390625 20.328125 13.890625 
Q 24.171875 6.390625 31.78125 6.390625 
Q 39.453125 6.390625 43.28125 13.890625 
Q 47.125 21.390625 47.125 36.375 
Q 47.125 51.421875 43.28125 58.90625 
Q 39.453125 66.40625 31.78125 66.40625 
z
M 31.78125 74.21875 
Q 44.046875 74.21875 50.515625 64.515625 
Q 56.984375 54.828125 56.984375 36.375 
Q 56.984375 17.96875 50.515625 8.265625 
Q 44.046875 -1.421875 31.78125 -1.421875 
Q 19.53125 -1.421875 13.0625 8.265625 
Q 6.59375 17.96875 6.59375 36.375 
Q 6.59375 54.828125 13.0625 64.515625 
Q 19.53125 74.21875 31.78125 74.21875 
z
" id="DejaVuSans-48"/>
      <path d="M 10.6875 12.40625 
L 21 12.40625 
L 21 0 
L 10.6875 0 
z
" id="DejaVuSans-46"/>
      <path d="M 19.1875 8.296875 
L 53.609375 8.296875 
L 53.609375 0 
L 7.328125 0 
L 7.328125 8.296875 
Q 12.9375 14.109375 22.625 23.890625 
Q 32.328125 33.6875 34.8125 36.53125 
Q 39.546875 41.84375 41.421875 45.53125 
Q 43.3125 49.21875 43.3125 52.78125 
Q 43.3125 58.59375 39.234375 62.25 
Q 35.15625 65.921875 28.609375 65.921875 
Q 23.96875 65.921875 18.8125 64.3125 
Q 13.671875 62.703125 7.8125 59.421875 
L 7.8125 69.390625 
Q 13.765625 71.78125 18.9375 73 
Q 24.125 74.21875 28.421875 74.21875 
Q 39.75 74.21875 46.484375 68.546875 
Q 53.21875 62.890625 53.21875 53.421875 
Q 53.21875 48.921875 51.53125 44.890625 
Q 49.859375 40.875 45.40625 35.40625 
Q 44.1875 33.984375 37.640625 27.21875 
Q 31.109375 20.453125 19.1875 8.296875 
z
" id="DejaVuSans-50"/>
      <path d="M 10.796875 72.90625 
L 49.515625 72.90625 
L 49.515625 64.59375 
L 19.828125 64.59375 
L 19.828125 46.734375 
Q 21.96875 47.46875 24.109375 47.828125 
Q 26.265625 48.1875 28.421875 48.1875 
Q 40.625 48.1875 47.75 41.5 
Q 54.890625 34.8125 54.890625 23.390625 
Q 54.890625 11.625 47.5625 5.09375 
Q 40.234375 -1.421875 26.90625 -1.421875 
Q 22.3125 -1.421875 17.546875 -0.640625 
Q 12.796875 0.140625 7.71875 1.703125 
L 7.71875 11.625 
Q 12.109375 9.234375 16.796875 8.0625 
Q 21.484375 6.890625 26.703125 6.890625 
Q 35.15625 6.890625 40.078125 11.328125 
Q 45.015625 15.765625 45.015625 23.390625 
Q 45.015625 31 40.078125 35.4375 
Q 35.15625 39.890625 26.703125 39.890625 
Q 22.75 39.890625 18.8125 39.015625 
Q 14.890625 38.140625 10.796875 36.28125 
z
" id="DejaVuSans-53"/>
      <path d="M 11.71875 12.40625 
L 22.015625 12.40625 
L 22.015625 4 
L 14.015625 -11.625 
L 7.71875 -11.625 
L 11.71875 4 
z
" id="DejaVuSans-44"/>
      <path id="DejaVuSans-32"/>
      <path d="M 34.28125 27.484375 
Q 23.390625 27.484375 19.1875 25 
Q 14.984375 22.515625 14.984375 16.5 
Q 14.984375 11.71875 18.140625 8.90625 
Q 21.296875 6.109375 26.703125 6.109375 
Q 34.1875 6.109375 38.703125 11.40625 
Q 43.21875 16.703125 43.21875 25.484375 
L 43.21875 27.484375 
z
M 52.203125 31.203125 
L 52.203125 0 
L 43.21875 0 
L 43.21875 8.296875 
Q 40.140625 3.328125 35.546875 0.953125 
Q 30.953125 -1.421875 24.3125 -1.421875 
Q 15.921875 -1.421875 10.953125 3.296875 
Q 6 8.015625 6 15.921875 
Q 6 25.140625 12.171875 29.828125 
Q 18.359375 34.515625 30.609375 34.515625 
L 43.21875 34.515625 
L 43.21875 35.40625 
Q 43.21875 41.609375 39.140625 45 
Q 35.0625 48.390625 27.6875 48.390625 
Q 23 48.390625 18.546875 47.265625 
Q 14.109375 46.140625 10.015625 43.890625 
L 10.015625 52.203125 
Q 14.9375 54.109375 19.578125 55.046875 
Q 24.21875 56 28.609375 56 
Q 40.484375 56 46.34375 49.84375 
Q 52.203125 43.703125 52.203125 31.203125 
z
" id="DejaVuSans-97"/>
      <path d="M 41.109375 46.296875 
Q 39.59375 47.171875 37.8125 47.578125 
Q 36.03125 48 33.890625 48 
Q 26.265625 48 22.1875 43.046875 
Q 18.109375 38.09375 18.109375 28.8125 
L 18.109375 0 
L 9.078125 0 
L 9.078125 54.6875 
L 18.109375 54.6875 
L 18.109375 46.1875 
Q 20.953125 51.171875 25.484375 53.578125 
Q 30.03125 56 36.53125 56 
Q 37.453125 56 38.578125 55.875 
Q 39.703125 55.765625 41.0625 55.515625 
z
" id="DejaVuSans-114"/>
      <path d="M 56.203125 29.59375 
L 56.203125 25.203125 
L 14.890625 25.203125 
Q 15.484375 15.921875 20.484375 11.0625 
Q 25.484375 6.203125 34.421875 6.203125 
Q 39.59375 6.203125 44.453125 7.46875 
Q 49.3125 8.734375 54.109375 11.28125 
L 54.109375 2.78125 
Q 49.265625 0.734375 44.1875 -0.34375 
Q 39.109375 -1.421875 33.890625 -1.421875 
Q 20.796875 -1.421875 13.15625 6.1875 
Q 5.515625 13.8125 5.515625 26.8125 
Q 5.515625 40.234375 12.765625 48.109375 
Q 20.015625 56 32.328125 56 
Q 43.359375 56 49.78125 48.890625 
Q 56.203125 41.796875 56.203125 29.59375 
z
M 47.21875 32.234375 
Q 47.125 39.59375 43.09375 43.984375 
Q 39.0625 48.390625 32.421875 48.390625 
Q 24.90625 48.390625 20.390625 44.140625 
Q 15.875 39.890625 15.1875 32.171875 
z
" id="DejaVuSans-101"/>
      <path d="M 12.40625 8.296875 
L 28.515625 8.296875 
L 28.515625 63.921875 
L 10.984375 60.40625 
L 10.984375 69.390625 
L 28.421875 72.90625 
L 38.28125 72.90625 
L 38.28125 8.296875 
L 54.390625 8.296875 
L 54.390625 0 
L 12.40625 0 
z
" id="DejaVuSans-49"/>
     </defs>
     <g transform="translate(582.5875 20.798437)scale(0.1 -0.1)">
      <use xlink:href="#DejaVuSans-102"/>
      <use x="35.205078" xlink:href="#DejaVuSans-47"/>
      <use x="68.896484" xlink:href="#DejaVuSans-68"/>
      <use x="145.898438" xlink:href="#DejaVuSans-61"/>
      <use x="229.6875" xlink:href="#DejaVuSans-48"/>
      <use x="293.310547" xlink:href="#DejaVuSans-46"/>
      <use x="325.097656" xlink:href="#DejaVuSans-50"/>
      <use x="388.720703" xlink:href="#DejaVuSans-53"/>
      <use x="452.34375" xlink:href="#DejaVuSans-44"/>
      <use x="484.130859" xlink:href="#DejaVuSans-32"/>
      <use x="515.917969" xlink:href="#DejaVuSans-97"/>
      <use x="577.197266" xlink:href="#DejaVuSans-114"/>
      <use x="618.279297" xlink:href="#DejaVuSans-101"/>
      <use x="679.802734" xlink:href="#DejaVuSans-97"/>
      <use x="741.082031" xlink:href="#DejaVuSans-61"/>
      <use x="824.871094" xlink:href="#DejaVuSans-49"/>
      <use x="888.494141" xlink:href="#DejaVuSans-46"/>
      <use x="920.28125" xlink:href="#DejaVuSans-48"/>
      <use x="983.904297" xlink:href="#DejaVuSans-48"/>
      <use x="1047.527344" xlink:href="#DejaVuSans-48"/>
     </g>
    </g>
    <g id="line2d_9">
     <path d="M 554.5875 31.976562 
L 574.5875 31.976562 
" style="fill:none;stroke:#6666ff;stroke-linecap:square;stroke-width:3;"/>
    </g>
    <g id="line2d_10"/>
    <g id="text_2">
     <!-- f/D=0.23, area=1.029 -->
     <defs>
      <path d="M 40.578125 39.3125 
Q 47.65625 37.796875 51.625 33 
Q 55.609375 28.21875 55.609375 21.1875 
Q 55.609375 10.40625 48.1875 4.484375 
Q 40.765625 -1.421875 27.09375 -1.421875 
Q 22.515625 -1.421875 17.65625 -0.515625 
Q 12.796875 0.390625 7.625 2.203125 
L 7.625 11.71875 
Q 11.71875 9.328125 16.59375 8.109375 
Q 21.484375 6.890625 26.8125 6.890625 
Q 36.078125 6.890625 40.9375 10.546875 
Q 45.796875 14.203125 45.796875 21.1875 
Q 45.796875 27.640625 41.28125 31.265625 
Q 36.765625 34.90625 28.71875 34.90625 
L 20.21875 34.90625 
L 20.21875 43.015625 
L 29.109375 43.015625 
Q 36.375 43.015625 40.234375 45.921875 
Q 44.09375 48.828125 44.09375 54.296875 
Q 44.09375 59.90625 40.109375 62.90625 
Q 36.140625 65.921875 28.71875 65.921875 
Q 24.65625 65.921875 20.015625 65.03125 
Q 15.375 64.15625 9.8125 62.3125 
L 9.8125 71.09375 
Q 15.4375 72.65625 20.34375 73.4375 
Q 25.25 74.21875 29.59375 74.21875 
Q 40.828125 74.21875 47.359375 69.109375 
Q 53.90625 64.015625 53.90625 55.328125 
Q 53.90625 49.265625 50.4375 45.09375 
Q 46.96875 40.921875 40.578125 39.3125 
z
" id="DejaVuSans-51"/>
      <path d="M 10.984375 1.515625 
L 10.984375 10.5 
Q 14.703125 8.734375 18.5 7.8125 
Q 22.3125 6.890625 25.984375 6.890625 
Q 35.75 6.890625 40.890625 13.453125 
Q 46.046875 20.015625 46.78125 33.40625 
Q 43.953125 29.203125 39.59375 26.953125 
Q 35.25 24.703125 29.984375 24.703125 
Q 19.046875 24.703125 12.671875 31.3125 
Q 6.296875 37.9375 6.296875 49.421875 
Q 6.296875 60.640625 12.9375 67.421875 
Q 19.578125 74.21875 30.609375 74.21875 
Q 43.265625 74.21875 49.921875 64.515625 
Q 56.59375 54.828125 56.59375 36.375 
Q 56.59375 19.140625 48.40625 8.859375 
Q 40.234375 -1.421875 26.421875 -1.421875 
Q 22.703125 -1.421875 18.890625 -0.6875 
Q 15.09375 0.046875 10.984375 1.515625 
z
M 30.609375 32.421875 
Q 37.25 32.421875 41.125 36.953125 
Q 45.015625 41.5 45.015625 49.421875 
Q 45.015625 57.28125 41.125 61.84375 
Q 37.25 66.40625 30.609375 66.40625 
Q 23.96875 66.40625 20.09375 61.84375 
Q 16.21875 57.28125 16.21875 49.421875 
Q 16.21875 41.5 20.09375 36.953125 
Q 23.96875 32.421875 30.609375 32.421875 
z
" id="DejaVuSans-57"/>
     </defs>
     <g transform="translate(582.5875 35.476562)scale(0.1 -0.1)">
      <use xlink:href="#DejaVuSans-102"/>
      <use x="35.205078" xlink:href="#DejaVuSans-47"/>
      <use x="68.896484" xlink:href="#DejaVuSans-68"/>
      <use x="145.898438" xlink:href="#DejaVuSans-61"/>
      <use x="229.6875" xlink:href="#DejaVuSans-48"/>
      <use x="293.310547" xlink:href="#DejaVuSans-46"/>
      <use x="325.097656" xlink:href="#DejaVuSans-50"/>
      <use x="388.720703" xlink:href="#DejaVuSans-51"/>
      <use x="452.34375" xlink:href="#DejaVuSans-44"/>
      <use x="484.130859" xlink:href="#DejaVuSans-32"/>
      <use x="515.917969" xlink:href="#DejaVuSans-97"/>
      <use x="577.197266" xlink:href="#DejaVuSans-114"/>
      <use x="618.279297" xlink:href="#DejaVuSans-101"/>
      <use x="679.802734" xlink:href="#DejaVuSans-97"/>
      <use x="741.082031" xlink:href="#DejaVuSans-61"/>
      <use x="824.871094" xlink:href="#DejaVuSans-49"/>
      <use x="888.494141" xlink:href="#DejaVuSans-46"/>
      <use x="920.28125" xlink:href="#DejaVuSans-48"/>
      <use x="983.904297" xlink:href="#DejaVuSans-50"/>
      <use x="1047.527344" xlink:href="#DejaVuSans-57"/>
     </g>
    </g>
    <g id="line2d_11">
     <path d="M 554.5875 46.654687 
L 574.5875 46.654687 
" style="fill:none;stroke:#666666;stroke-linecap:square;stroke-width:3;"/>
    </g>
    <g id="line2d_12"/>
    <g id="text_3">
     <!-- f/D=0.22, area=1.045 -->
     <defs>
      <path d="M 37.796875 64.3125 
L 12.890625 25.390625 
L 37.796875 25.390625 
z
M 35.203125 72.90625 
L 47.609375 72.90625 
L 47.609375 25.390625 
L 58.015625 25.390625 
L 58.015625 17.1875 
L 47.609375 17.1875 
L 47.609375 0 
L 37.796875 0 
L 37.796875 17.1875 
L 4.890625 17.1875 
L 4.890625 26.703125 
z
" id="DejaVuSans-52"/>
     </defs>
     <g transform="translate(582.5875 50.154687)scale(0.1 -0.1)">
      <use xlink:href="#DejaVuSans-102"/>
      <use x="35.205078" xlink:href="#DejaVuSans-47"/>
      <use x="68.896484" xlink:href="#DejaVuSans-68"/>
      <use x="145.898438" xlink:href="#DejaVuSans-61"/>
      <use x="229.6875" xlink:href="#DejaVuSans-48"/>
      <use x="293.310547" xlink:href="#DejaVuSans-46"/>
      <use x="325.097656" xlink:href="#DejaVuSans-50"/>
      <use x="388.720703" xlink:href="#DejaVuSans-50"/>
      <use x="452.34375" xlink:href="#DejaVuSans-44"/>
      <use x="484.130859" xlink:href="#DejaVuSans-32"/>
      <use x="515.917969" xlink:href="#DejaVuSans-97"/>
      <use x="577.197266" xlink:href="#DejaVuSans-114"/>
      <use x="618.279297" xlink:href="#DejaVuSans-101"/>
      <use x="679.802734" xlink:href="#DejaVuSans-97"/>
      <use x="741.082031" xlink:href="#DejaVuSans-61"/>
      <use x="824.871094" xlink:href="#DejaVuSans-49"/>
      <use x="888.494141" xlink:href="#DejaVuSans-46"/>
      <use x="920.28125" xlink:href="#DejaVuSans-48"/>
      <use x="983.904297" xlink:href="#DejaVuSans-52"/>
      <use x="1047.527344" xlink:href="#DejaVuSans-53"/>
     </g>
    </g>
   </g>
  </g>
 </g>
 <defs>
  <clipPath id="pf435177456">
   <rect height="271.8" width="669.6" x="30.103125" y="7.2"/>
  </clipPath>
 </defs>
</svg>
