<?xml version="1.0" encoding="utf-8" standalone="no"?>
<!DOCTYPE svg PUBLIC "-//W3C//DTD SVG 1.1//EN"
  "http://www.w3.org/Graphics/SVG/1.1/DTD/svg11.dtd">
<!-- Created with matplotlib (https://matplotlib.org/) -->
<svg height="302.878125pt" version="1.1" viewBox="0 0 715.282812 302.878125" width="715.282812pt" xmlns="http://www.w3.org/2000/svg" xmlns:xlink="http://www.w3.org/1999/xlink">
 <defs>
  <style type="text/css">
*{stroke-linecap:butt;stroke-linejoin:round;}
  </style>
 </defs>
 <g id="figure_1">
  <g id="patch_1">
   <path d="M 0 302.878125 
L 715.282812 302.878125 
L 715.282812 0 
L 0 0 
z
" style="fill:#ffffff;"/>
  </g>
  <g id="axes_1">
   <g id="line2d_1">
    <path clip-path="url(#pfd0508a050)" d="M 86.311384 81.140262 
L 95.78302 90.455589 
L 105.158982 99.368928 
L 114.534945 107.975933 
L 123.815235 116.193452 
L 132.999851 124.030767 
L 142.088794 131.497064 
L 151.177738 138.675496 
L 160.171008 145.49503 
L 169.068605 151.964662 
L 177.87053 158.093289 
L 186.672454 163.951946 
L 195.378705 169.481337 
L 204.084956 174.746595 
L 212.695534 179.694196 
L 221.210439 184.332754 
L 229.725343 188.718661 
L 238.144575 192.806879 
L 246.563807 196.648093 
L 254.887366 200.202845 
L 263.210924 203.516173 
L 271.43881 206.554141 
L 279.666696 209.356203 
L 287.894581 211.922359 
L 296.026794 214.22687 
L 304.159006 216.30093 
L 312.291219 218.144539 
L 320.327758 219.740058 
L 328.364298 221.110516 
L 336.400837 222.255914 
L 344.437376 223.176251 
L 352.473916 223.871528 
L 360.510455 224.341744 
L 368.546995 224.586899 
L 376.487861 224.608078 
L 384.428727 224.409523 
L 392.465267 223.984855 
L 400.501806 223.335127 
L 408.538346 222.460338 
L 416.574885 221.360488 
L 424.611424 220.035578 
L 432.647964 218.485607 
L 440.684503 216.710575 
L 448.816716 214.685316 
L 456.948928 212.429607 
L 465.081141 209.943446 
L 473.309026 207.193503 
L 481.536912 204.207654 
L 489.764798 200.9859 
L 498.088356 197.486647 
L 506.411915 193.745972 
L 514.831147 189.716698 
L 523.250379 185.440418 
L 531.765283 180.864314 
L 540.280188 176.035558 
L 548.890766 170.895621 
L 557.501344 165.497324 
L 566.207595 159.776364 
L 575.009519 153.724032 
L 583.811443 147.40173 
L 592.709041 140.736319 
L 601.702311 133.718899 
L 610.695581 126.419644 
L 619.784525 118.756388 
L 628.969141 110.720039 
L 638.249431 102.301414 
L 647.52972 93.582675 
L 656.905683 84.469283 
L 660.254241 81.140262 
L 660.254241 81.140262 
" style="fill:none;stroke:#00dd00;stroke-linecap:square;stroke-width:3;"/>
   </g>
   <g id="line2d_2">
    <defs>
     <path d="M -5 5 
L 5 -5 
M -5 -5 
L 5 5 
" id="ma65b353a9d" style="stroke:#00dd00;"/>
    </defs>
    <g clip-path="url(#pfd0508a050)">
     <use style="fill:#00dd00;stroke:#00dd00;" x="373.282813" xlink:href="#ma65b353a9d" y="81.140262"/>
    </g>
   </g>
   <g id="line2d_3">
    <path clip-path="url(#pfd0508a050)" d="M 86.311384 68.663243 
L 95.591674 78.58741 
L 104.77629 88.088083 
L 113.960906 97.269238 
L 123.04985 106.040213 
L 132.04312 114.410889 
L 140.940717 122.391042 
L 149.742642 129.990347 
L 158.544566 137.296205 
L 167.250817 144.233972 
L 175.861395 150.813113 
L 184.3763 157.042989 
L 192.891204 162.998245 
L 201.310436 168.616578 
L 209.633995 173.907142 
L 217.957554 178.935289 
L 226.185439 183.647731 
L 234.413325 188.103755 
L 242.545537 192.256 
L 250.67775 196.157755 
L 258.714289 199.76752 
L 266.750829 203.132654 
L 274.691695 206.217447 
L 282.632561 209.063398 
L 290.477755 211.640519 
L 298.322948 213.984519 
L 306.168141 216.095398 
L 313.917661 217.951661 
L 321.667181 219.580455 
L 329.416701 220.98178 
L 337.166222 222.155634 
L 344.820069 223.091723 
L 352.473916 223.805924 
L 360.127763 224.298237 
L 367.78161 224.568662 
L 375.435457 224.6172 
L 383.089304 224.44385 
L 390.743151 224.048613 
L 398.396998 223.431488 
L 406.050845 222.592476 
L 413.704692 221.531575 
L 421.454212 220.231349 
L 429.203733 218.703652 
L 436.953253 216.948487 
L 444.702773 214.965851 
L 452.452293 212.755747 
L 460.297486 210.286658 
L 468.14268 207.584448 
L 476.083546 204.611882 
L 484.024412 201.400474 
L 491.965279 197.950226 
L 500.001818 194.215233 
L 508.038357 190.235609 
L 516.17057 185.959592 
L 524.302782 181.433085 
L 532.530668 176.598396 
L 540.854227 171.446582 
L 549.177785 166.03235 
L 557.597017 160.288928 
L 566.016249 154.277022 
L 574.531154 147.92372 
L 583.141732 141.219767 
L 591.75231 134.234987 
L 600.458561 126.887075 
L 609.260485 119.166564 
L 618.158082 111.063887 
L 627.151352 102.56937 
L 636.144623 93.76851 
L 645.233566 84.562774 
L 654.418183 74.942281 
L 660.254241 68.663243 
L 660.254241 68.663243 
" style="fill:none;stroke:#6666ff;stroke-linecap:square;stroke-width:3;"/>
   </g>
   <g id="line2d_4">
    <defs>
     <path d="M -5 5 
L 5 -5 
M -5 -5 
L 5 5 
" id="mcd81f3e3bc" style="stroke:#6666ff;"/>
    </defs>
    <g clip-path="url(#pfd0508a050)">
     <use style="fill:#6666ff;stroke:#6666ff;" x="373.282813" xlink:href="#mcd81f3e3bc" y="92.619119"/>
    </g>
   </g>
   <g id="line2d_5">
    <path clip-path="url(#pfd0508a050)" d="M 86.311384 61.574028 
L 95.496 71.844071 
L 104.584944 81.678295 
L 113.673887 91.185399 
L 122.667158 100.270457 
L 131.564755 108.943689 
L 140.366679 117.215209 
L 149.07293 125.09502 
L 157.779181 132.674679 
L 166.389759 139.875823 
L 174.904664 146.708238 
L 183.323896 153.181601 
L 191.743127 159.374276 
L 200.066686 165.220659 
L 208.294572 170.730209 
L 216.522457 175.971685 
L 224.65467 180.888796 
L 232.691209 185.490787 
L 240.727749 189.837026 
L 248.668615 193.880323 
L 256.609481 197.673922 
L 264.454674 201.176612 
L 272.299868 204.435585 
L 280.049388 207.415537 
L 287.798908 210.15768 
L 295.452755 212.632547 
L 303.106602 214.87544 
L 310.760449 216.886359 
L 318.318623 218.644501 
L 325.876797 220.176431 
L 333.434971 221.482152 
L 340.993145 222.561662 
L 348.551319 223.414961 
L 356.01382 224.035527 
L 363.476321 224.435572 
L 370.938822 224.615098 
L 378.401323 224.574104 
L 385.863824 224.31259 
L 393.326325 223.830556 
L 400.788825 223.128003 
L 408.346999 222.191664 
L 415.905173 221.029115 
L 423.463347 219.640355 
L 431.021521 218.025385 
L 438.579695 216.184205 
L 446.233542 214.089195 
L 453.887389 211.762212 
L 461.541237 209.203255 
L 469.290757 206.37597 
L 477.040277 203.310876 
L 484.789797 200.007973 
L 492.63499 196.422063 
L 500.480183 192.592435 
L 508.42105 188.467912 
L 516.361916 184.09369 
L 524.398456 179.412539 
L 532.530668 174.415324 
L 540.662881 169.156233 
L 548.890766 163.568755 
L 557.118652 157.713202 
L 565.44221 151.516793 
L 573.861442 144.970068 
L 582.280674 138.142655 
L 590.795579 130.952168 
L 599.406157 123.388928 
L 608.112408 115.44315 
L 616.914332 107.104938 
L 625.716256 98.459941 
L 634.613853 89.409171 
L 643.607124 79.942517 
L 652.696067 70.049757 
L 660.254241 61.574028 
L 660.254241 61.574028 
" style="fill:none;stroke:#666666;stroke-linecap:square;stroke-width:3;"/>
   </g>
   <g id="line2d_6">
    <defs>
     <path d="M -5 5 
L 5 -5 
M -5 -5 
L 5 5 
" id="mfaa8b44104" style="stroke:#666666;"/>
    </defs>
    <g clip-path="url(#pfd0508a050)">
     <use style="fill:#666666;stroke:#666666;" x="373.282813" xlink:href="#mfaa8b44104" y="98.358547"/>
    </g>
   </g>
   <g id="legend_1">
    <g id="patch_2">
     <path d="M 561.967188 53.234375 
L 703.082813 53.234375 
L 703.082813 12.2 
L 561.967188 12.2 
z
" style="fill:#ffffff;opacity:0.8;stroke:#cccccc;stroke-linejoin:miter;"/>
    </g>
    <g id="line2d_7">
     <path d="M 562.967188 17.298437 
L 582.967188 17.298437 
" style="fill:none;stroke:#00dd00;stroke-linecap:square;stroke-width:3;"/>
    </g>
    <g id="line2d_8"/>
    <g id="text_1">
     <!-- f/D=0.25, area=1.000 -->
     <defs>
      <path d="M 37.109375 75.984375 
L 37.109375 68.5 
L 28.515625 68.5 
Q 23.6875 68.5 21.796875 66.546875 
Q 19.921875 64.59375 19.921875 59.515625 
L 19.921875 54.6875 
L 34.71875 54.6875 
L 34.71875 47.703125 
L 19.921875 47.703125 
L 19.921875 0 
L 10.890625 0 
L 10.890625 47.703125 
L 2.296875 47.703125 
L 2.296875 54.6875 
L 10.890625 54.6875 
L 10.890625 58.5 
Q 10.890625 67.625 15.140625 71.796875 
Q 19.390625 75.984375 28.609375 75.984375 
z
" id="DejaVuSans-102"/>
      <path d="M 25.390625 72.90625 
L 33.6875 72.90625 
L 8.296875 -9.28125 
L 0 -9.28125 
z
" id="DejaVuSans-47"/>
      <path d="M 19.671875 64.796875 
L 19.671875 8.109375 
L 31.59375 8.109375 
Q 46.6875 8.109375 53.6875 14.9375 
Q 60.6875 21.78125 60.6875 36.53125 
Q 60.6875 51.171875 53.6875 57.984375 
Q 46.6875 64.796875 31.59375 64.796875 
z
M 9.8125 72.90625 
L 30.078125 72.90625 
Q 51.265625 72.90625 61.171875 64.09375 
Q 71.09375 55.28125 71.09375 36.53125 
Q 71.09375 17.671875 61.125 8.828125 
Q 51.171875 0 30.078125 0 
L 9.8125 0 
z
" id="DejaVuSans-68"/>
      <path d="M 10.59375 45.40625 
L 73.1875 45.40625 
L 73.1875 37.203125 
L 10.59375 37.203125 
z
M 10.59375 25.484375 
L 73.1875 25.484375 
L 73.1875 17.1875 
L 10.59375 17.1875 
z
" id="DejaVuSans-61"/>
      <path d="M 31.78125 66.40625 
Q 24.171875 66.40625 20.328125 58.90625 
Q 16.5 51.421875 16.5 36.375 
Q 16.5 21.390625 20.328125 13.890625 
Q 24.171875 6.390625 31.78125 6.390625 
Q 39.453125 6.390625 43.28125 13.890625 
Q 47.125 21.390625 47.125 36.375 
Q 47.125 51.421875 43.28125 58.90625 
Q 39.453125 66.40625 31.78125 66.40625 
z
M 31.78125 74.21875 
Q 44.046875 74.21875 50.515625 64.515625 
Q 56.984375 54.828125 56.984375 36.375 
Q 56.984375 17.96875 50.515625 8.265625 
Q 44.046875 -1.421875 31.78125 -1.421875 
Q 19.53125 -1.421875 13.0625 8.265625 
Q 6.59375 17.96875 6.59375 36.375 
Q 6.59375 54.828125 13.0625 64.515625 
Q 19.53125 74.21875 31.78125 74.21875 
z
" id="DejaVuSans-48"/>
      <path d="M 10.6875 12.40625 
L 21 12.40625 
L 21 0 
L 10.6875 0 
z
" id="DejaVuSans-46"/>
      <path d="M 19.1875 8.296875 
L 53.609375 8.296875 
L 53.609375 0 
L 7.328125 0 
L 7.328125 8.296875 
Q 12.9375 14.109375 22.625 23.890625 
Q 32.328125 33.6875 34.8125 36.53125 
Q 39.546875 41.84375 41.421875 45.53125 
Q 43.3125 49.21875 43.3125 52.78125 
Q 43.3125 58.59375 39.234375 62.25 
Q 35.15625 65.921875 28.609375 65.921875 
Q 23.96875 65.921875 18.8125 64.3125 
Q 13.671875 62.703125 7.8125 59.421875 
L 7.8125 69.390625 
Q 13.765625 71.78125 18.9375 73 
Q 24.125 74.21875 28.421875 74.21875 
Q 39.75 74.21875 46.484375 68.546875 
Q 53.21875 62.890625 53.21875 53.421875 
Q 53.21875 48.921875 51.53125 44.890625 
Q 49.859375 40.875 45.40625 35.40625 
Q 44.1875 33.984375 37.640625 27.21875 
Q 31.109375 20.453125 19.1875 8.296875 
z
" id="DejaVuSans-50"/>
      <path d="M 10.796875 72.90625 
L 49.515625 72.90625 
L 49.515625 64.59375 
L 19.828125 64.59375 
L 19.828125 46.734375 
Q 21.96875 47.46875 24.109375 47.828125 
Q 26.265625 48.1875 28.421875 48.1875 
Q 40.625 48.1875 47.75 41.5 
Q 54.890625 34.8125 54.890625 23.390625 
Q 54.890625 11.625 47.5625 5.09375 
Q 40.234375 -1.421875 26.90625 -1.421875 
Q 22.3125 -1.421875 17.546875 -0.640625 
Q 12.796875 0.140625 7.71875 1.703125 
L 7.71875 11.625 
Q 12.109375 9.234375 16.796875 8.0625 
Q 21.484375 6.890625 26.703125 6.890625 
Q 35.15625 6.890625 40.078125 11.328125 
Q 45.015625 15.765625 45.015625 23.390625 
Q 45.015625 31 40.078125 35.4375 
Q 35.15625 39.890625 26.703125 39.890625 
Q 22.75 39.890625 18.8125 39.015625 
Q 14.890625 38.140625 10.796875 36.28125 
z
" id="DejaVuSans-53"/>
      <path d="M 11.71875 12.40625 
L 22.015625 12.40625 
L 22.015625 4 
L 14.015625 -11.625 
L 7.71875 -11.625 
L 11.71875 4 
z
" id="DejaVuSans-44"/>
      <path id="DejaVuSans-32"/>
      <path d="M 34.28125 27.484375 
Q 23.390625 27.484375 19.1875 25 
Q 14.984375 22.515625 14.984375 16.5 
Q 14.984375 11.71875 18.140625 8.90625 
Q 21.296875 6.109375 26.703125 6.109375 
Q 34.1875 6.109375 38.703125 11.40625 
Q 43.21875 16.703125 43.21875 25.484375 
L 43.21875 27.484375 
z
M 52.203125 31.203125 
L 52.203125 0 
L 43.21875 0 
L 43.21875 8.296875 
Q 40.140625 3.328125 35.546875 0.953125 
Q 30.953125 -1.421875 24.3125 -1.421875 
Q 15.921875 -1.421875 10.953125 3.296875 
Q 6 8.015625 6 15.921875 
Q 6 25.140625 12.171875 29.828125 
Q 18.359375 34.515625 30.609375 34.515625 
L 43.21875 34.515625 
L 43.21875 35.40625 
Q 43.21875 41.609375 39.140625 45 
Q 35.0625 48.390625 27.6875 48.390625 
Q 23 48.390625 18.546875 47.265625 
Q 14.109375 46.140625 10.015625 43.890625 
L 10.015625 52.203125 
Q 14.9375 54.109375 19.578125 55.046875 
Q 24.21875 56 28.609375 56 
Q 40.484375 56 46.34375 49.84375 
Q 52.203125 43.703125 52.203125 31.203125 
z
" id="DejaVuSans-97"/>
      <path d="M 41.109375 46.296875 
Q 39.59375 47.171875 37.8125 47.578125 
Q 36.03125 48 33.890625 48 
Q 26.265625 48 22.1875 43.046875 
Q 18.109375 38.09375 18.109375 28.8125 
L 18.109375 0 
L 9.078125 0 
L 9.078125 54.6875 
L 18.109375 54.6875 
L 18.109375 46.1875 
Q 20.953125 51.171875 25.484375 53.578125 
Q 30.03125 56 36.53125 56 
Q 37.453125 56 38.578125 55.875 
Q 39.703125 55.765625 41.0625 55.515625 
z
" id="DejaVuSans-114"/>
      <path d="M 56.203125 29.59375 
L 56.203125 25.203125 
L 14.890625 25.203125 
Q 15.484375 15.921875 20.484375 11.0625 
Q 25.484375 6.203125 34.421875 6.203125 
Q 39.59375 6.203125 44.453125 7.46875 
Q 49.3125 8.734375 54.109375 11.28125 
L 54.109375 2.78125 
Q 49.265625 0.734375 44.1875 -0.34375 
Q 39.109375 -1.421875 33.890625 -1.421875 
Q 20.796875 -1.421875 13.15625 6.1875 
Q 5.515625 13.8125 5.515625 26.8125 
Q 5.515625 40.234375 12.765625 48.109375 
Q 20.015625 56 32.328125 56 
Q 43.359375 56 49.78125 48.890625 
Q 56.203125 41.796875 56.203125 29.59375 
z
M 47.21875 32.234375 
Q 47.125 39.59375 43.09375 43.984375 
Q 39.0625 48.390625 32.421875 48.390625 
Q 24.90625 48.390625 20.390625 44.140625 
Q 15.875 39.890625 15.1875 32.171875 
z
" id="DejaVuSans-101"/>
      <path d="M 12.40625 8.296875 
L 28.515625 8.296875 
L 28.515625 63.921875 
L 10.984375 60.40625 
L 10.984375 69.390625 
L 28.421875 72.90625 
L 38.28125 72.90625 
L 38.28125 8.296875 
L 54.390625 8.296875 
L 54.390625 0 
L 12.40625 0 
z
" id="DejaVuSans-49"/>
     </defs>
     <g transform="translate(590.967188 20.798437)scale(0.1 -0.1)">
      <use xlink:href="#DejaVuSans-102"/>
      <use x="35.205078" xlink:href="#DejaVuSans-47"/>
      <use x="68.896484" xlink:href="#DejaVuSans-68"/>
      <use x="145.898438" xlink:href="#DejaVuSans-61"/>
      <use x="229.6875" xlink:href="#DejaVuSans-48"/>
      <use x="293.310547" xlink:href="#DejaVuSans-46"/>
      <use x="325.097656" xlink:href="#DejaVuSans-50"/>
      <use x="388.720703" xlink:href="#DejaVuSans-53"/>
      <use x="452.34375" xlink:href="#DejaVuSans-44"/>
      <use x="484.130859" xlink:href="#DejaVuSans-32"/>
      <use x="515.917969" xlink:href="#DejaVuSans-97"/>
      <use x="577.197266" xlink:href="#DejaVuSans-114"/>
      <use x="618.279297" xlink:href="#DejaVuSans-101"/>
      <use x="679.802734" xlink:href="#DejaVuSans-97"/>
      <use x="741.082031" xlink:href="#DejaVuSans-61"/>
      <use x="824.871094" xlink:href="#DejaVuSans-49"/>
      <use x="888.494141" xlink:href="#DejaVuSans-46"/>
      <use x="920.28125" xlink:href="#DejaVuSans-48"/>
      <use x="983.904297" xlink:href="#DejaVuSans-48"/>
      <use x="1047.527344" xlink:href="#DejaVuSans-48"/>
     </g>
    </g>
    <g id="line2d_9">
     <path d="M 562.967188 31.976562 
L 582.967188 31.976562 
" style="fill:none;stroke:#6666ff;stroke-linecap:square;stroke-width:3;"/>
    </g>
    <g id="line2d_10"/>
    <g id="text_2">
     <!-- f/D=0.23, area=1.029 -->
     <defs>
      <path d="M 40.578125 39.3125 
Q 47.65625 37.796875 51.625 33 
Q 55.609375 28.21875 55.609375 21.1875 
Q 55.609375 10.40625 48.1875 4.484375 
Q 40.765625 -1.421875 27.09375 -1.421875 
Q 22.515625 -1.421875 17.65625 -0.515625 
Q 12.796875 0.390625 7.625 2.203125 
L 7.625 11.71875 
Q 11.71875 9.328125 16.59375 8.109375 
Q 21.484375 6.890625 26.8125 6.890625 
Q 36.078125 6.890625 40.9375 10.546875 
Q 45.796875 14.203125 45.796875 21.1875 
Q 45.796875 27.640625 41.28125 31.265625 
Q 36.765625 34.90625 28.71875 34.90625 
L 20.21875 34.90625 
L 20.21875 43.015625 
L 29.109375 43.015625 
Q 36.375 43.015625 40.234375 45.921875 
Q 44.09375 48.828125 44.09375 54.296875 
Q 44.09375 59.90625 40.109375 62.90625 
Q 36.140625 65.921875 28.71875 65.921875 
Q 24.65625 65.921875 20.015625 65.03125 
Q 15.375 64.15625 9.8125 62.3125 
L 9.8125 71.09375 
Q 15.4375 72.65625 20.34375 73.4375 
Q 25.25 74.21875 29.59375 74.21875 
Q 40.828125 74.21875 47.359375 69.109375 
Q 53.90625 64.015625 53.90625 55.328125 
Q 53.90625 49.265625 50.4375 45.09375 
Q 46.96875 40.921875 40.578125 39.3125 
z
" id="DejaVuSans-51"/>
      <path d="M 10.984375 1.515625 
L 10.984375 10.5 
Q 14.703125 8.734375 18.5 7.8125 
Q 22.3125 6.890625 25.984375 6.890625 
Q 35.75 6.890625 40.890625 13.453125 
Q 46.046875 20.015625 46.78125 33.40625 
Q 43.953125 29.203125 39.59375 26.953125 
Q 35.25 24.703125 29.984375 24.703125 
Q 19.046875 24.703125 12.671875 31.3125 
Q 6.296875 37.9375 6.296875 49.421875 
Q 6.296875 60.640625 12.9375 67.421875 
Q 19.578125 74.21875 30.609375 74.21875 
Q 43.265625 74.21875 49.921875 64.515625 
Q 56.59375 54.828125 56.59375 36.375 
Q 56.59375 19.140625 48.40625 8.859375 
Q 40.234375 -1.421875 26.421875 -1.421875 
Q 22.703125 -1.421875 18.890625 -0.6875 
Q 15.09375 0.046875 10.984375 1.515625 
z
M 30.609375 32.421875 
Q 37.25 32.421875 41.125 36.953125 
Q 45.015625 41.5 45.015625 49.421875 
Q 45.015625 57.28125 41.125 61.84375 
Q 37.25 66.40625 30.609375 66.40625 
Q 23.96875 66.40625 20.09375 61.84375 
Q 16.21875 57.28125 16.21875 49.421875 
Q 16.21875 41.5 20.09375 36.953125 
Q 23.96875 32.421875 30.609375 32.421875 
z
" id="DejaVuSans-57"/>
     </defs>
     <g transform="translate(590.967188 35.476562)scale(0.1 -0.1)">
      <use xlink:href="#DejaVuSans-102"/>
      <use x="35.205078" xlink:href="#DejaVuSans-47"/>
      <use x="68.896484" xlink:href="#DejaVuSans-68"/>
      <use x="145.898438" xlink:href="#DejaVuSans-61"/>
      <use x="229.6875" xlink:href="#DejaVuSans-48"/>
      <use x="293.310547" xlink:href="#DejaVuSans-46"/>
      <use x="325.097656" xlink:href="#DejaVuSans-50"/>
      <use x="388.720703" xlink:href="#DejaVuSans-51"/>
      <use x="452.34375" xlink:href="#DejaVuSans-44"/>
      <use x="484.130859" xlink:href="#DejaVuSans-32"/>
      <use x="515.917969" xlink:href="#DejaVuSans-97"/>
      <use x="577.197266" xlink:href="#DejaVuSans-114"/>
      <use x="618.279297" xlink:href="#DejaVuSans-101"/>
      <use x="679.802734" xlink:href="#DejaVuSans-97"/>
      <use x="741.082031" xlink:href="#DejaVuSans-61"/>
      <use x="824.871094" xlink:href="#DejaVuSans-49"/>
      <use x="888.494141" xlink:href="#DejaVuSans-46"/>
      <use x="920.28125" xlink:href="#DejaVuSans-48"/>
      <use x="983.904297" xlink:href="#DejaVuSans-50"/>
      <use x="1047.527344" xlink:href="#DejaVuSans-57"/>
     </g>
    </g>
    <g id="line2d_11">
     <path d="M 562.967188 46.654687 
L 582.967188 46.654687 
" style="fill:none;stroke:#666666;stroke-linecap:square;stroke-width:3;"/>
    </g>
    <g id="line2d_12"/>
    <g id="text_3">
     <!-- f/D=0.22, area=1.045 -->
     <defs>
      <path d="M 37.796875 64.3125 
L 12.890625 25.390625 
L 37.796875 25.390625 
z
M 35.203125 72.90625 
L 47.609375 72.90625 
L 47.609375 25.390625 
L 58.015625 25.390625 
L 58.015625 17.1875 
L 47.609375 17.1875 
L 47.609375 0 
L 37.796875 0 
L 37.796875 17.1875 
L 4.890625 17.1875 
L 4.890625 26.703125 
z
" id="DejaVuSans-52"/>
     </defs>
     <g transform="translate(590.967188 50.154687)scale(0.1 -0.1)">
      <use xlink:href="#DejaVuSans-102"/>
      <use x="35.205078" xlink:href="#DejaVuSans-47"/>
      <use x="68.896484" xlink:href="#DejaVuSans-68"/>
      <use x="145.898438" xlink:href="#DejaVuSans-61"/>
      <use x="229.6875" xlink:href="#DejaVuSans-48"/>
      <use x="293.310547" xlink:href="#DejaVuSans-46"/>
      <use x="325.097656" xlink:href="#DejaVuSans-50"/>
      <use x="388.720703" xlink:href="#DejaVuSans-50"/>
      <use x="452.34375" xlink:href="#DejaVuSans-44"/>
      <use x="484.130859" xlink:href="#DejaVuSans-32"/>
      <use x="515.917969" xlink:href="#DejaVuSans-97"/>
      <use x="577.197266" xlink:href="#DejaVuSans-114"/>
      <use x="618.279297" xlink:href="#DejaVuSans-101"/>
      <use x="679.802734" xlink:href="#DejaVuSans-97"/>
      <use x="741.082031" xlink:href="#DejaVuSans-61"/>
      <use x="824.871094" xlink:href="#DejaVuSans-49"/>
      <use x="888.494141" xlink:href="#DejaVuSans-46"/>
      <use x="920.28125" xlink:href="#DejaVuSans-48"/>
      <use x="983.904297" xlink:href="#DejaVuSans-52"/>
      <use x="1047.527344" xlink:href="#DejaVuSans-53"/>
     </g>
    </g>
   </g>
  </g>
 </g>
 <defs>
  <clipPath id="pfd0508a050">
   <rect height="271.8" width="669.6" x="38.482813" y="7.2"/>
  </clipPath>
 </defs>
</svg>
